<?xml version="1.0" standalone="no"?>
<!DOCTYPE svg PUBLIC "-//W3C//DTD SVG 20010904//EN"
 "http://www.w3.org/TR/2001/REC-SVG-20010904/DTD/svg10.dtd">
<svg version="1.0" xmlns="http://www.w3.org/2000/svg"
 width="2000.000000pt" height="2000.000000pt" viewBox="0 0 2000.000000 2000.000000"
 preserveAspectRatio="xMidYMid meet">
<metadata>
Created by potrace 1.14, written by Peter Selinger 2001-2017
</metadata>
<g transform="translate(0.000000,2000.000000) scale(0.100000,-0.100000)"
fill="#000000" stroke="none">
<path d="M1601 18163 c-32 -223 -35 -555 -6 -763 3 -19 7 -51 10 -70 4 -32 25
-149 40 -225 11 -57 74 -270 105 -360 112 -318 268 -602 491 -895 114 -150
147 -188 309 -351 359 -364 803 -676 1338 -941 89 -44 162 -81 162 -83 0 -7
-290 78 -490 145 -530 176 -1006 392 -1428 647 -208 125 -481 314 -598 412
-17 14 -53 44 -79 66 -189 155 -409 374 -558 555 -43 52 -91 111 -107 130
l-29 35 5 -58 c3 -33 18 -109 33 -170 193 -758 1063 -1538 2369 -2124 269
-120 680 -286 825 -333 20 -6 37 -14 37 -16 0 -4 -75 1 -145 11 -16 2 -57 7
-90 10 -33 4 -71 8 -85 10 -14 3 -41 7 -60 9 -34 5 -67 10 -147 21 -56 8 -334
54 -363 60 -14 3 -41 8 -60 11 -19 3 -42 7 -50 9 -8 2 -31 7 -50 10 -19 3 -78
15 -130 26 -52 11 -106 23 -120 25 -14 3 -81 19 -150 35 -69 17 -135 32 -147
35 -30 6 -290 77 -393 107 -575 170 -1127 429 -1420 666 -50 40 -48 37 28 -73
54 -78 66 -94 147 -185 449 -511 1198 -929 2050 -1144 160 -41 355 -83 425
-92 14 -2 41 -7 60 -10 76 -15 229 -37 335 -50 28 -3 66 -8 85 -10 33 -4 67
-8 203 -20 116 -10 388 -23 501 -24 33 -1 57 -3 55 -5 -5 -5 -206 -52 -259
-61 -19 -3 -57 -10 -85 -15 -43 -8 -208 -33 -300 -45 -16 -2 -82 -9 -145 -15
-63 -6 -133 -13 -155 -15 -220 -25 -935 -25 -1135 -1 -19 3 -75 7 -123 11 -48
3 -96 8 -105 10 -9 1 -46 6 -82 9 -36 4 -76 9 -90 11 -14 2 -45 7 -70 10 -25
3 -83 12 -130 20 -47 7 -103 16 -125 20 -22 3 -102 18 -177 34 -76 15 -138 25
-138 21 0 -12 178 -175 255 -233 106 -80 206 -148 310 -212 242 -147 595 -293
880 -364 111 -27 259 -57 330 -66 17 -2 46 -7 65 -10 184 -30 654 -35 835 -10
26 4 142 19 227 30 31 4 138 24 213 39 261 52 725 203 961 311 108 50 113 49
54 -6 -108 -100 -300 -249 -445 -346 -159 -106 -450 -266 -595 -327 -25 -11
-64 -28 -88 -39 -108 -47 -334 -123 -481 -160 -105 -27 -106 -27 49 -52 25 -4
53 -9 62 -11 9 -1 41 -5 70 -9 29 -3 67 -7 83 -10 191 -24 662 -24 845 0 19 3
58 7 85 10 28 3 61 8 75 10 14 3 41 7 60 10 441 71 887 252 1229 497 75 54
215 169 247 202 5 6 36 36 68 66 l57 55 -20 -52 c-86 -220 -265 -458 -487
-649 -84 -72 -267 -204 -283 -204 -6 0 -11 -3 -11 -7 0 -5 -10 -13 -23 -19
-12 -6 -74 -38 -137 -71 -63 -33 -155 -76 -204 -96 l-88 -35 58 -12 c95 -20
484 -16 546 5 7 2 31 7 52 10 185 27 417 119 602 240 103 67 125 85 250 210
138 138 266 321 345 492 16 35 31 63 33 63 25 0 -89 -481 -144 -605 -5 -11
-23 -54 -41 -95 -77 -181 -189 -351 -313 -476 -50 -50 -110 -103 -133 -118
-24 -14 -43 -28 -43 -30 0 -4 71 0 140 9 160 20 388 128 530 250 56 48 151
146 201 205 103 122 243 359 314 531 152 370 346 490 598 368 130 -63 307
-220 397 -354 56 -83 138 -242 170 -331 l21 -60 -20 -60 c-46 -136 -198 -424
-257 -485 -38 -39 -39 -44 -49 -227 -6 -119 -1 -142 35 -142 13 0 25 20 44 71
14 38 26 77 26 85 0 22 13 17 46 -17 27 -28 29 -35 27 -100 -4 -101 -28 -139
-88 -139 -14 0 -29 -9 -35 -20 -6 -11 -9 -20 -6 -20 3 0 1 -13 -4 -30 -8 -27
-6 -30 13 -30 12 1 40 7 62 15 21 8 41 12 43 10 2 -2 5 -57 7 -122 3 -115 12
-246 21 -328 9 -85 22 -181 29 -215 3 -14 10 -53 16 -88 6 -35 13 -62 14 -60
2 2 7 39 10 83 14 180 12 161 36 350 9 72 31 210 44 275 3 14 8 41 11 60 10
61 66 274 76 290 7 12 8 10 4 -5 -38 -155 -50 -423 -27 -615 28 -225 58 -345
213 -840 44 -140 86 -277 95 -305 8 -27 18 -53 22 -57 4 -5 24 13 45 38 37 44
172 141 182 131 3 -2 -11 -31 -30 -63 -40 -68 -87 -181 -112 -273 -17 -60 -17
-67 -1 -130 10 -36 19 -75 21 -86 3 -11 10 -42 16 -70 6 -27 13 -59 15 -70 2
-11 10 -60 18 -110 9 -49 19 -119 22 -155 4 -36 9 -74 11 -85 7 -30 6 -303 0
-354 -39 -313 -145 -593 -349 -923 -55 -89 -130 -200 -164 -243 -5 -5 -33 -41
-63 -80 -141 -181 -419 -476 -569 -604 -128 -109 -290 -222 -430 -298 -52 -29
-78 -51 -46 -38 11 4 61 20 110 35 433 135 637 224 872 379 500 333 820 799
932 1360 34 168 45 284 45 451 -1 94 -12 274 -20 314 -2 12 -7 48 -10 81 -4
33 -10 83 -14 110 -4 28 -6 52 -4 54 4 5 70 -137 142 -304 97 -227 124 -363
101 -505 -14 -92 -21 -113 -59 -195 -52 -113 -59 -130 -80 -210 -12 -44 -26
-88 -31 -97 -5 -10 -11 -37 -13 -60 -2 -24 -13 -59 -24 -78 -11 -19 -25 -66
-32 -104 -6 -38 -18 -85 -26 -104 -20 -49 -18 -73 15 -190 17 -57 33 -123 37
-148 5 -35 11 -45 30 -50 13 -3 24 -9 24 -13 0 -16 -74 -190 -145 -346 -88
-190 -87 -187 -67 -176 10 5 25 17 33 27 21 25 163 134 274 209 55 37 98 65
95 62 -3 -4 -59 -61 -125 -129 -136 -139 -222 -234 -321 -358 -38 -47 -71 -87
-74 -90 -26 -25 -92 -129 -119 -185 -114 -238 -218 -492 -265 -645 -31 -102
-73 -288 -81 -356 -3 -27 -9 -60 -12 -74 -3 -14 -7 -121 -8 -239 -3 -178 -6
-216 -18 -223 -21 -11 -254 -78 -302 -86 -22 -3 -72 -7 -112 -7 -62 0 -76 3
-95 23 l-23 23 27 48 c58 105 294 453 395 582 50 65 54 79 16 73 -78 -12 -112
-35 -180 -117 -36 -45 -71 -86 -76 -92 -12 -13 -1 198 18 355 12 93 37 229 66
349 16 68 27 126 25 128 -7 8 -87 -133 -116 -204 -30 -76 -58 -180 -67 -251
-3 -26 -7 -54 -9 -62 -1 -8 -3 -23 -3 -33 -1 -10 -5 -16 -11 -12 -5 3 -26 -9
-47 -28 -111 -98 -268 -166 -418 -182 -116 -13 -163 -14 -565 -19 l-405 -5
115 29 c236 61 397 138 505 245 98 95 130 163 129 265 -3 187 -131 335 -283
325 -100 -7 -335 -140 -511 -291 -149 -127 -225 -202 -350 -342 -199 -223
-398 -546 -481 -782 -64 -181 -95 -384 -74 -490 16 -80 115 -217 212 -292 64
-50 178 -90 253 -89 52 0 174 30 270 66 133 49 438 221 500 282 13 13 13 16
-4 28 -17 13 -27 10 -90 -24 -212 -112 -562 -230 -696 -233 -100 -3 -186 23
-236 70 -104 99 -119 308 -39 547 35 102 138 298 236 444 l100 151 312 1 c172
0 366 2 432 4 235 5 550 16 580 20 17 2 57 7 90 10 146 16 302 94 423 211 l52
50 1 -30 c1 -69 21 -212 35 -258 3 -10 -19 -50 -59 -105 -35 -48 -83 -117
-106 -152 -24 -35 -52 -72 -62 -82 -11 -11 -19 -24 -19 -30 0 -6 -20 -39 -44
-73 -55 -77 -254 -395 -307 -490 -121 -217 -159 -310 -135 -334 4 -4 56 -7
114 -6 125 0 162 14 191 72 24 49 86 239 106 327 9 38 37 118 62 178 l47 109
19 -26 c24 -33 53 -33 120 0 66 33 494 170 503 161 1 -1 5 -22 9 -47 3 -25 18
-83 31 -130 14 -47 28 -95 31 -107 3 -13 -8 -45 -30 -85 -280 -513 -411 -895
-410 -1193 1 -194 38 -311 129 -401 84 -82 178 -115 313 -109 281 12 611 147
891 364 245 190 500 475 618 690 115 213 140 417 53 438 -40 9 -45 15 -27 29
10 7 54 45 98 86 45 40 89 80 99 89 36 32 236 216 313 289 143 136 180 171
319 306 142 138 176 159 205 130 33 -33 20 -99 -52 -265 -169 -390 -225 -655
-165 -779 41 -83 150 -172 212 -172 91 0 358 207 357 277 0 4 -4 14 -9 22 -7
11 -31 3 -122 -41 -126 -61 -233 -94 -274 -84 -30 8 -45 40 -47 100 -2 82 38
242 92 361 5 11 26 61 47 110 88 212 292 592 413 770 51 76 2 242 -74 248 -39
3 -91 -44 -368 -327 -473 -486 -768 -778 -963 -955 -110 -99 -281 -230 -390
-298 -126 -78 -223 -65 -241 34 -20 107 52 343 175 573 28 52 56 106 63 120
34 67 86 149 92 145 3 -3 4 -2 1 1 -15 21 311 516 512 777 82 106 96 144 64
176 -17 17 -29 20 -62 16 -23 -3 -55 -13 -71 -23 -45 -26 -265 -316 -435 -572
l-63 -95 -1 45 c-6 214 25 409 92 573 15 39 27 72 25 74 -8 8 -118 -122 -151
-178 -65 -111 -90 -212 -89 -354 1 -77 33 -225 55 -251 6 -7 3 -19 -9 -35 -44
-58 -228 -399 -291 -538 -93 -208 -141 -426 -115 -525 41 -155 178 -224 322
-160 45 20 173 102 192 123 8 10 104 87 117 94 6 4 35 2 63 -4 83 -18 106 -73
76 -184 -21 -81 -92 -204 -170 -295 -36 -42 -227 -233 -276 -275 -393 -342
-700 -513 -927 -517 -267 -5 -419 174 -399 469 18 258 99 528 281 940 l28 62
29 -46 c120 -189 345 -387 541 -477 80 -37 107 -47 107 -42 0 3 -30 33 -66 68
-180 173 -339 426 -419 670 -33 102 -37 121 -26 144 27 60 174 305 179 299 3
-3 7 -35 9 -72 7 -164 63 -374 144 -535 43 -86 140 -241 147 -234 2 2 -5 24
-16 48 -41 91 -111 327 -126 423 -4 22 -11 65 -16 95 -20 119 -28 371 -14 455
5 32 51 110 107 180 55 70 103 137 118 167 19 37 19 38 -1 58 -26 26 -63 25
-111 -2 -21 -12 -41 -19 -44 -16 -3 2 8 47 24 99 88 289 274 647 484 928 90
121 140 206 178 305 33 85 69 232 69 281 -1 24 -7 15 -34 -46 -77 -175 -148
-289 -295 -474 -303 -379 -509 -832 -582 -1275 -16 -100 -36 -149 -93 -230
-48 -67 -60 -79 -116 -103 l-62 -26 6 107 c3 59 8 118 11 132 2 14 9 56 15 93
25 160 99 402 185 607 29 70 140 294 171 347 11 17 34 57 53 90 77 133 202
309 350 492 144 180 239 342 305 523 l29 78 48 6 c27 4 54 13 60 20 19 23 66
230 63 281 -1 27 -15 89 -32 138 -27 83 -29 97 -22 175 7 87 5 469 -3 505 -3
11 -8 54 -12 95 -3 41 -15 125 -26 185 -36 203 -37 261 -2 177 8 -20 23 -55
33 -77 64 -147 154 -439 176 -575 3 -14 6 -36 9 -50 28 -153 28 -513 0 -745
-3 -22 -7 -58 -10 -80 -3 -22 -7 -60 -10 -85 -33 -275 -119 -582 -225 -803
-20 -42 -33 -77 -29 -77 25 0 201 285 303 490 150 302 263 656 302 945 3 28 8
52 9 55 10 17 20 213 20 395 0 156 -5 237 -19 315 -17 103 -80 361 -91 380 -3
6 -3 10 2 10 11 0 22 -26 95 -210 33 -85 64 -164 69 -175 10 -22 89 -261 94
-285 2 -8 15 -53 29 -100 24 -84 71 -272 80 -320 2 -14 11 -56 20 -95 15 -70
42 -234 52 -310 3 -22 9 -70 14 -107 5 -36 12 -97 15 -135 3 -37 7 -90 10
-118 17 -177 23 -631 11 -815 -12 -174 -17 -236 -21 -280 -3 -25 -7 -69 -10
-98 -12 -122 -17 -164 -36 -297 -23 -165 -50 -322 -86 -495 -14 -69 -27 -136
-30 -150 l-5 -25 18 25 c10 13 55 97 100 185 107 212 190 424 277 710 57 185
131 533 153 715 4 30 10 78 13 105 21 165 -107 726 -239 1044 l-30 75 33 -35
c64 -65 162 -200 221 -301 15 -27 28 -48 30 -48 4 0 0 55 -10 150 -12 108 -10
98 -29 225 -43 285 -166 663 -342 1055 -12 25 -61 135 -111 245 -49 110 -104
230 -120 266 -207 450 -227 521 -257 914 -5 66 -8 101 -20 240 -2 33 -7 80
-10 105 -2 25 -7 74 -11 110 -3 36 -7 72 -9 80 -2 8 -6 49 -9 90 -4 41 -9 89
-11 105 -21 179 -23 217 -11 275 4 19 14 73 22 120 8 46 16 86 18 87 4 5 75
-99 128 -187 60 -101 117 -209 230 -435 105 -210 106 -212 177 -375 28 -63 51
-108 51 -100 0 13 -56 342 -64 375 -2 6 -7 33 -11 60 -5 28 -10 52 -10 55 -2
6 -16 77 -20 100 -2 8 -13 58 -25 110 -21 92 -25 112 -34 155 -18 86 -78 304
-131 475 -35 113 -80 266 -100 340 -20 74 -59 200 -85 280 -44 133 -57 194
-75 370 -4 30 -9 62 -11 70 -9 28 13 -3 42 -60 24 -44 111 -194 197 -335 12
-20 155 -201 193 -245 145 -165 221 -272 216 -304 -2 -11 -14 -64 -27 -116
-49 -198 -49 -194 -4 -332 23 -68 44 -126 48 -131 4 -4 19 3 33 16 l25 23 22
-34 c23 -34 23 -34 38 -13 11 16 18 19 27 12 14 -12 26 -5 26 16 0 8 -15 40
-33 72 -58 97 -86 178 -77 218 9 40 64 124 108 166 l29 28 12 -43 c7 -24 21
-54 31 -68 16 -21 22 -23 47 -14 34 12 33 15 -4 168 -24 96 -32 114 -64 145
-21 20 -92 119 -158 221 -67 102 -124 190 -129 195 -21 28 -86 144 -123 222
-23 48 -88 183 -144 298 -115 235 -123 255 -103 255 26 0 154 -68 196 -105 40
-35 163 -194 344 -445 111 -154 175 -224 291 -321 90 -76 99 -74 23 4 -145
147 -293 378 -481 747 -106 208 -162 262 -282 268 -40 2 -87 -1 -105 -7 -24
-9 -33 -8 -40 1 -13 21 -10 25 35 43 58 23 75 27 127 25 90 -2 139 -26 220
-109 68 -69 72 -75 238 -421 62 -128 182 -328 223 -370 8 -8 31 -36 52 -62
108 -134 276 -268 432 -343 86 -42 216 -84 280 -91 17 -1 51 -5 78 -8 26 -3
47 -2 47 3 0 4 -21 23 -47 42 -155 110 -327 342 -424 569 -17 41 -37 89 -44
105 -27 64 -93 284 -109 365 -20 100 -35 182 -40 220 -6 42 -4 40 37 -45 235
-487 624 -807 1122 -925 136 -32 293 -47 449 -45 137 3 181 6 276 24 3 1 -31
16 -75 34 -197 81 -395 193 -564 319 -125 93 -328 298 -414 418 -65 92 -195
335 -184 346 3 3 38 -27 79 -66 40 -39 117 -107 171 -151 92 -74 269 -199 283
-199 3 0 18 -8 32 -19 43 -30 190 -107 282 -146 276 -120 585 -204 885 -240
28 -4 61 -8 74 -10 146 -24 635 -24 836 -1 17 2 57 7 90 11 70 8 212 31 252
42 l28 7 -35 8 c-58 14 -66 16 -147 39 -349 97 -741 281 -1073 502 -72 48
-232 164 -275 198 -67 55 -225 192 -225 195 0 2 17 -3 38 -12 513 -221 960
-349 1392 -399 25 -3 59 -7 75 -9 47 -7 291 -19 380 -19 469 0 919 90 1340
269 333 142 663 355 898 581 38 36 67 67 65 68 -2 2 -41 -5 -88 -16 -47 -10
-101 -21 -120 -24 -19 -3 -42 -8 -50 -10 -8 -3 -31 -7 -50 -10 -19 -2 -46 -6
-60 -9 -14 -2 -47 -8 -75 -12 -27 -4 -52 -8 -55 -9 -3 -1 -34 -5 -70 -9 -36
-5 -74 -10 -85 -12 -11 -2 -45 -6 -75 -9 -30 -3 -71 -8 -90 -10 -19 -2 -64 -7
-100 -10 -36 -3 -83 -8 -105 -10 -267 -25 -912 -25 -1145 0 -19 2 -66 6 -105
9 -152 13 -468 55 -525 71 -8 2 -33 6 -55 10 -52 7 -269 56 -274 61 -2 2 29 4
70 5 109 1 412 16 489 24 19 2 67 6 105 10 39 3 86 7 105 10 19 3 55 7 80 10
268 31 745 123 915 176 17 5 91 27 165 49 132 39 390 132 480 172 244 109 351
163 524 265 105 63 304 195 350 233 11 10 57 46 101 81 109 86 346 325 426
429 80 105 122 170 110 170 -6 0 -13 -4 -16 -10 -25 -40 -354 -244 -545 -337
-325 -159 -814 -333 -1200 -427 -8 -2 -44 -12 -80 -21 -36 -9 -74 -19 -85 -21
-11 -2 -29 -6 -40 -9 -138 -33 -372 -83 -425 -91 -19 -3 -66 -12 -105 -19 -38
-8 -87 -17 -109 -21 -21 -3 -46 -7 -55 -9 -9 -1 -36 -6 -61 -10 -25 -4 -52 -9
-60 -10 -9 -2 -43 -7 -75 -11 -33 -4 -62 -9 -65 -9 -3 -1 -32 -5 -65 -9 -33
-5 -69 -10 -80 -12 -32 -6 -85 -13 -180 -24 -49 -6 -107 -13 -127 -16 -38 -6
-54 9 -20 19 95 28 494 187 722 287 243 106 652 311 772 387 21 12 39 23 42
23 8 0 228 136 349 217 318 212 549 408 817 692 81 87 232 293 306 421 87 149
175 368 199 499 9 50 18 151 13 151 -3 0 -25 -26 -49 -57 -38 -52 -96 -121
-184 -222 -46 -52 -232 -239 -305 -305 -165 -153 -419 -348 -625 -481 -66 -43
-136 -88 -155 -100 -126 -83 -605 -335 -758 -399 -32 -13 -110 -47 -174 -75
-146 -62 -376 -148 -572 -212 -153 -51 -437 -131 -442 -126 -2 2 75 42 171 90
162 81 341 180 478 266 76 47 349 234 379 259 13 11 52 43 88 71 542 428 945
971 1155 1556 79 221 113 352 150 580 8 50 17 110 20 135 10 73 14 510 5 580
-19 161 -22 183 -30 208 l-8 27 -2 -30 c-2 -57 -21 -214 -36 -295 -2 -14 -7
-40 -10 -58 -29 -174 -115 -446 -196 -622 -66 -142 -81 -172 -132 -260 -299
-516 -757 -958 -1351 -1305 -136 -80 -331 -179 -460 -234 l-50 -21 72 65 c269
245 408 637 403 1130 -1 61 -3 124 -5 140 -2 17 -5 49 -6 73 -3 41 -19 61 -19
23 0 -32 -68 -248 -117 -371 -69 -176 -139 -304 -240 -447 -200 -280 -444
-473 -758 -596 -96 -37 -275 -84 -353 -93 -26 -3 -60 -7 -77 -9 -16 -2 -49 -4
-71 -4 l-42 -1 -26 -87 c-38 -123 -61 -183 -121 -303 -105 -213 -214 -355
-379 -494 l-69 -58 64 7 c107 11 347 77 511 140 16 7 16 3 2 -47 -43 -152
-148 -321 -278 -450 -178 -177 -431 -318 -720 -401 l-114 -33 77 -39 c79 -40
197 -148 233 -212 l18 -31 -223 1 c-197 1 -406 -7 -462 -17 -11 -2 -51 -7 -90
-12 -38 -4 -72 -8 -75 -9 -3 -1 -27 -5 -55 -9 -99 -15 -127 -21 -275 -58 -122
-30 -323 -94 -387 -123 -17 -8 -34 -15 -38 -15 -12 0 -197 -91 -270 -132 -86
-49 -148 -90 -157 -103 -5 -6 -8 -6 -8 1 0 21 98 140 170 207 129 119 297 214
505 286 107 37 289 84 370 95 155 22 200 27 280 33 50 4 132 7 184 7 l93 1
-48 42 c-57 51 -165 105 -254 128 -87 23 -89 23 -134 24 -40 1 -45 9 -10 15
11 2 48 7 84 11 85 9 111 12 162 20 24 4 57 9 73 11 17 3 82 16 145 30 399 88
685 257 789 465 44 88 40 95 -26 50 -115 -77 -259 -111 -468 -108 -71 0 -145
3 -164 6 l-35 6 55 29 c595 320 970 848 1053 1481 14 107 21 379 10 396 -3 6
-25 -36 -48 -93 -36 -87 -69 -154 -130 -262 -42 -75 -189 -276 -241 -331 -11
-12 -43 -46 -71 -76 -62 -66 -155 -152 -214 -199 -24 -19 -58 -47 -75 -61 -95
-81 -365 -250 -469 -293 -45 -19 -45 -33 7 121 81 233 113 405 111 598 -2 126
-25 221 -72 296 -26 40 -80 94 -87 87 -2 -2 -6 -50 -9 -108 -3 -58 -8 -116
-10 -130 -2 -14 -7 -47 -11 -75 -20 -159 -71 -346 -138 -510 -50 -122 -189
-360 -245 -421 -10 -10 -23 -27 -28 -36 -21 -37 -155 -176 -249 -257 -340
-294 -782 -501 -1325 -620 -52 -11 -110 -23 -127 -26 -18 -3 -48 -7 -65 -10
-18 -3 -45 -8 -59 -11 -22 -4 -35 5 -85 59 -106 113 -264 316 -264 338 0 5 44
-23 98 -60 220 -155 337 -182 479 -110 112 57 112 56 -30 137 -67 39 -155 94
-195 122 -70 49 -232 203 -232 220 0 9 13 8 129 -16 145 -30 243 -13 305 52
26 28 27 32 23 121 -2 51 -6 95 -9 98 -3 4 -23 -10 -44 -30 -75 -68 -149 -68
-216 3 -77 80 -311 418 -446 644 -159 263 -318 395 -557 459 -65 17 -109 22
-235 22 -85 0 -182 -5 -216 -11 -58 -12 -200 -16 -254 -8 -14 2 -48 7 -75 10
-28 4 -93 13 -145 21 -52 8 -115 16 -140 20 -25 3 -70 10 -100 15 -30 5 -82
12 -115 15 -32 4 -66 8 -75 10 -8 1 -53 6 -100 10 -47 4 -98 9 -114 11 -27 3
-28 3 -10 -10 10 -7 71 -40 134 -73 190 -99 309 -172 420 -258 53 -41 223
-206 217 -211 -1 -1 -99 24 -217 56 -118 33 -223 59 -232 60 -10 0 -22 -9 -28
-20 -9 -17 1 -29 82 -97 236 -199 377 -378 480 -608 36 -81 85 -237 93 -298
15 -111 19 -151 19 -227 0 -228 -49 -438 -153 -655 -54 -113 -97 -169 -145
-186 -21 -8 -40 -25 -52 -48 -10 -20 -46 -74 -80 -121 -33 -47 -73 -107 -89
-133 l-28 -48 -29 68 c-67 158 -137 403 -154 537 -2 23 -6 50 -9 61 -2 11 -4
24 -4 28 -1 5 -4 6 -8 4 -10 -6 -235 14 -313 28 -14 3 -43 7 -65 11 -22 3 -47
7 -55 9 -8 2 -31 7 -50 10 -19 3 -107 23 -196 45 -823 202 -1422 640 -1696
1240 -22 47 -44 94 -49 105 -20 44 -81 250 -95 320 -17 89 -23 126 -28 165 -9
78 -16 153 -20 223 -3 38 -7 71 -9 74 -10 9 -78 -70 -103 -118 -53 -105 -70
-288 -44 -467 17 -112 63 -290 108 -419 22 -62 38 -113 36 -113 -12 0 -179 89
-258 138 -466 286 -814 686 -994 1140 -27 67 -30 71 -34 44 -12 -85 0 -321 24
-457 14 -82 16 -91 33 -160 9 -33 17 -64 18 -70 1 -5 5 -14 9 -20 3 -5 9 -26
13 -45 19 -95 142 -339 242 -483 166 -239 428 -471 688 -612 39 -20 75 -40 80
-44 33 -20 -284 -26 -395 -6 -120 21 -207 56 -297 121 -22 16 -22 15 -13 -15
37 -130 193 -288 370 -373 156 -76 382 -148 540 -173 19 -3 60 -10 90 -15 86
-14 119 -18 205 -26 103 -9 103 -9 111 -17 4 -3 -2 -5 -14 -2 -33 6 -203 -35
-272 -67 -81 -36 -190 -111 -190 -129 0 -2 44 -4 98 -5 91 -1 246 -10 302 -19
14 -2 45 -6 70 -10 83 -12 105 -16 180 -31 383 -78 703 -250 881 -474 78 -99
77 -105 -13 -46 -142 92 -369 197 -564 261 -84 27 -280 81 -326 89 -15 3 -63
12 -105 20 -43 9 -91 18 -108 20 -16 2 -57 7 -90 11 -33 3 -71 9 -85 11 -67
10 -267 18 -462 17 -120 0 -218 3 -218 8 0 15 73 105 124 152 28 26 85 64 127
84 l77 37 -82 22 c-516 137 -888 438 -1027 833 -24 69 -24 85 -1 76 144 -59
393 -128 512 -140 l65 -7 -62 46 c-141 107 -299 310 -400 516 -50 101 -133
327 -133 363 0 13 -9 17 -42 17 -155 2 -399 57 -558 127 -392 171 -676 450
-875 858 -75 154 -124 284 -170 449 l-33 121 -8 -70 c-10 -86 -11 -345 -1
-440 32 -325 124 -575 283 -771 51 -63 115 -126 152 -151 12 -9 21 -18 18 -20
-6 -6 -117 42 -266 117 -755 377 -1362 959 -1672 1600 -74 154 -111 245 -154
379 -24 74 -78 285 -88 346 -11 65 -25 162 -30 210 -3 28 -8 72 -11 99 -3 28
-7 51 -9 53 -1 2 -9 -36 -15 -84z m9375 -8780 c21 -149 43 -259 90 -443 28
-111 70 -242 158 -495 9 -26 -71 133 -106 210 -44 99 -88 212 -136 355 -42
125 -45 142 -43 225 1 50 4 106 6 125 1 19 3 55 4 79 2 66 13 43 27 -56z
m-2937 -4367 c21 -22 26 -36 26 -79 0 -228 -382 -503 -800 -576 -88 -15 -215
-25 -215 -16 0 10 306 314 400 396 148 130 339 260 432 294 60 21 124 14 157
-19z m1591 -1131 c-7 -9 -15 -13 -17 -11 -7 7 7 26 19 26 6 0 6 -6 -2 -15z"/>
<path d="M18280 18238 c0 -20 -84 -240 -138 -363 -282 -642 -683 -1197 -1197
-1658 -48 -44 -73 -61 -62 -44 74 115 86 271 30 387 -30 64 -96 150 -114 150
-5 0 -6 -24 -2 -57 12 -100 6 -266 -13 -374 -23 -130 -114 -357 -183 -459 -16
-24 -28 -46 -26 -48 2 -3 21 6 42 19 21 13 50 31 65 39 33 18 256 172 285 197
12 10 38 32 59 48 247 192 536 507 721 785 238 357 430 809 507 1190 3 14 7
34 9 45 19 84 29 147 23 152 -3 3 -6 -1 -6 -9z"/>
<path d="M1715 18183 c4 -16 9 -39 11 -53 76 -442 289 -953 562 -1345 206
-296 480 -580 769 -797 106 -80 248 -176 327 -222 l50 -29 -24 39 c-149 245
-215 472 -213 734 0 47 3 106 6 133 3 26 4 47 1 47 -17 0 -88 -90 -113 -143
-56 -118 -52 -248 11 -366 l29 -54 -51 43 c-74 62 -333 321 -410 410 -36 41
-67 77 -70 80 -16 14 -174 216 -231 295 -258 354 -475 768 -634 1208 -19 51
-31 64 -20 20z"/>
<path d="M19114 16496 c-28 -29 -123 -112 -260 -226 -82 -69 -151 -127 -154
-130 -27 -31 -598 -472 -731 -566 -31 -21 -121 -85 -200 -140 -226 -159 -512
-347 -698 -461 -69 -42 -62 -41 36 1 758 324 1434 824 1957 1447 16 18 38 44
49 56 21 23 21 41 1 19z"/>
<path d="M905 16435 c514 -626 1218 -1154 1964 -1475 140 -60 145 -64 -99 90
-119 75 -401 261 -410 270 -3 3 -25 19 -50 35 -37 25 -151 105 -289 203 -265
189 -767 590 -1055 842 -107 93 -111 96 -61 35z"/>
<path d="M681 16154 c0 -11 3 -14 6 -6 3 7 2 16 -1 19 -3 4 -6 -2 -5 -13z"/>
<path d="M19291 16118 c-45 -150 -162 -394 -285 -590 -160 -255 -407 -518
-671 -714 -75 -55 -116 -83 -240 -163 -64 -41 -347 -181 -445 -220 -89 -35
-84 -39 14 -10 313 91 601 241 851 442 93 75 320 313 390 410 102 141 147 216
219 362 74 150 126 286 162 422 25 94 29 142 5 61z"/>
<path d="M696 16105 c11 -54 24 -104 51 -183 197 -590 601 -1065 1147 -1347
131 -68 377 -165 456 -180 12 -2 31 -7 43 -11 43 -13 11 4 -58 31 -375 147
-750 401 -1039 704 -68 72 -66 69 -111 126 -22 27 -48 59 -58 70 -10 11 -57
78 -104 148 -101 152 -215 369 -273 522 -56 146 -61 157 -54 120z"/>
<path d="M18965 14845 c-27 -13 -81 -38 -120 -55 -38 -18 -95 -44 -125 -58
-30 -14 -89 -39 -130 -57 -41 -18 -95 -41 -120 -52 -144 -65 -578 -237 -840
-333 -310 -114 -919 -314 -972 -319 -5 -1 -8 -6 -8 -12 0 -5 3 -8 8 -6 4 3 34
8 67 12 33 3 74 8 90 11 17 2 44 6 60 8 278 37 660 134 955 243 394 145 794
355 1125 591 85 60 86 64 10 27z"/>
<path d="M985 14839 c6 -9 332 -229 340 -229 3 0 24 -12 48 -27 66 -42 151
-88 297 -162 368 -186 805 -337 1200 -415 14 -2 50 -10 80 -16 74 -14 230 -38
310 -46 36 -3 68 -8 73 -11 4 -2 7 0 7 5 0 8 -18 16 -65 28 -26 6 -318 99
-465 147 -485 161 -1109 404 -1560 609 -113 52 -169 77 -218 101 -28 14 -50
21 -47 16z"/>
<path d="M19567 14552 c-301 -279 -570 -475 -933 -681 -344 -194 -906 -407
-1254 -475 -70 -13 -90 -19 -90 -26 0 -4 17 -6 38 -4 20 1 82 5 137 9 133 8
184 13 285 30 123 21 139 24 205 42 33 8 71 17 84 20 13 2 76 21 140 42 522
174 973 486 1322 916 141 174 164 218 66 127z"/>
<path d="M370 14574 c0 -4 28 -44 62 -88 500 -655 1216 -1056 2018 -1131 110
-10 298 -13 265 -4 -16 5 -105 26 -196 48 -91 22 -253 69 -360 104 -580 193
-1079 473 -1556 874 -71 59 -131 112 -135 118 -11 17 -98 88 -98 79z"/>
<path d="M3358 13933 c7 -3 16 -2 19 1 4 3 -2 6 -13 5 -11 0 -14 -3 -6 -6z"/>
<path d="M18377 13324 c-1 -1 -36 -5 -77 -8 -41 -4 -95 -9 -120 -11 -25 -3
-72 -7 -105 -10 -63 -5 -124 -11 -228 -20 -34 -3 -84 -7 -112 -10 -27 -2 -81
-7 -120 -10 -38 -3 -88 -7 -110 -10 -40 -4 -100 -10 -225 -20 -35 -3 -85 -8
-110 -10 -25 -2 -81 -6 -125 -10 -44 -3 -100 -8 -125 -11 -25 -2 -76 -7 -115
-9 -38 -3 -90 -7 -115 -10 -46 -5 -90 -9 -235 -20 -106 -9 -158 -15 -162 -19
-2 -2 38 -7 89 -10 51 -4 107 -9 123 -11 152 -21 611 -20 850 0 39 3 95 8 125
11 71 5 138 13 170 19 14 3 41 7 60 9 43 5 108 15 136 21 12 3 39 7 60 11 103
15 543 119 589 139 6 2 -18 3 -53 2 -35 -1 -64 -3 -65 -3z"/>
<path d="M1530 13296 c77 -23 244 -68 270 -72 14 -3 66 -14 115 -25 151 -34
253 -52 415 -74 25 -3 56 -8 70 -10 14 -2 57 -7 95 -10 39 -3 84 -7 100 -9
182 -24 812 -24 946 -1 13 2 53 7 88 9 71 6 94 16 40 17 -19 0 -41 2 -49 3 -8
2 -51 6 -95 10 -44 3 -98 8 -120 10 -22 3 -80 7 -130 11 -49 3 -101 8 -115 10
-14 2 -63 6 -110 10 -119 9 -221 17 -365 30 -27 2 -81 7 -120 10 -38 3 -88 8
-110 10 -22 2 -71 7 -110 10 -38 3 -88 8 -110 10 -22 2 -76 7 -120 10 -44 4
-96 8 -115 10 -35 4 -108 10 -222 20 -35 4 -81 8 -103 10 -22 2 -74 6 -115 9
l-75 5 45 -13z"/>
<path d="M18010 12604 c-105 -64 -353 -184 -490 -237 -265 -102 -495 -159
-815 -202 -186 -25 -628 -25 -755 -1 -14 3 -47 8 -75 11 -236 26 -574 115
-829 219 -49 20 -91 35 -92 33 -11 -11 285 -163 416 -214 36 -14 74 -29 85
-34 95 -41 393 -117 530 -135 28 -3 57 -8 66 -9 127 -24 501 -22 674 5 33 5
77 11 97 14 21 3 59 11 85 17 27 6 55 12 63 14 247 52 557 180 805 332 137 84
339 234 314 233 -2 0 -38 -21 -79 -46z"/>
<path d="M1890 12635 c0 -7 222 -171 300 -221 71 -45 361 -196 425 -220 219
-84 401 -137 540 -158 22 -4 67 -11 100 -16 197 -31 538 -33 716 -4 14 2 41 6
60 8 47 6 96 15 149 27 25 6 53 12 62 14 126 26 377 114 508 177 36 17 67 32
70 33 3 0 16 7 30 14 14 8 50 27 80 44 72 38 150 88 150 94 0 3 -10 -1 -22 -9
-50 -33 -445 -172 -547 -193 -9 -2 -38 -9 -66 -15 -27 -6 -59 -13 -70 -16 -11
-2 -44 -9 -74 -15 -30 -6 -64 -12 -75 -14 -12 -1 -41 -6 -66 -9 -175 -25 -264
-31 -485 -31 -186 0 -351 8 -410 20 -11 2 -42 7 -70 10 -96 11 -293 55 -446
99 -256 73 -512 183 -751 323 -60 34 -108 60 -108 58z"/>
<path d="M8302 12379 c-72 -36 -111 -91 -227 -314 -186 -357 -306 -540 -452
-689 -74 -75 -73 -75 22 -6 53 39 218 217 280 304 152 212 315 427 342 452 52
49 110 83 182 107 140 48 269 14 395 -102 l50 -46 -35 49 c-133 189 -419 315
-557 245z"/>
<path d="M13530 12144 c163 -185 408 -365 630 -463 140 -62 175 -74 291 -104
348 -91 734 -79 1064 33 84 28 86 30 40 25 -239 -24 -498 -24 -675 -1 -14 2
-48 7 -75 10 -397 51 -830 217 -1195 459 -72 47 -97 61 -80 41z"/>
<path d="M6440 12114 c-124 -93 -393 -239 -575 -312 -103 -41 -302 -107 -346
-115 -13 -3 -51 -12 -84 -20 -33 -8 -78 -18 -100 -23 -22 -4 -42 -8 -45 -9 -3
0 -32 -5 -65 -9 -32 -4 -68 -10 -80 -12 -123 -24 -676 -22 -717 3 -5 2 -8 0
-8 -4 0 -21 265 -87 430 -108 102 -13 385 -13 460 0 364 61 615 164 885 365
80 59 250 216 284 263 18 23 13 21 -39 -19z"/>
<path d="M12680 12036 c0 -11 63 -119 101 -174 160 -233 380 -404 639 -496 66
-24 100 -33 235 -61 54 -11 281 -18 359 -10 79 7 103 20 39 21 -69 1 -190 17
-298 38 -392 78 -788 321 -1033 634 -23 30 -42 51 -42 48z"/>
<path d="M7278 11966 c-54 -73 -199 -218 -293 -292 -261 -203 -585 -336 -905
-370 -36 -4 -72 -8 -80 -10 -8 -1 -40 -3 -70 -4 l-55 -2 45 -9 c79 -17 411
-12 439 5 4 3 26 7 50 11 25 4 92 22 150 41 242 79 464 239 619 447 65 87 149
224 141 231 -2 2 -21 -20 -41 -48z"/>
<path d="M9010 9795 c5 -17 21 -84 36 -150 35 -162 34 -157 39 -185 2 -14 13
-70 24 -125 21 -108 31 -163 38 -210 2 -16 10 -68 18 -115 8 -47 17 -107 21
-135 3 -27 8 -58 10 -69 2 -10 6 -44 10 -75 3 -31 8 -63 9 -71 3 -14 16 -132
20 -175 6 -64 18 -184 21 -205 10 -59 12 -531 4 -595 -5 -38 -12 -90 -15 -115
-3 -25 -8 -52 -10 -60 -2 -8 -6 -31 -9 -50 -20 -134 -105 -410 -181 -589 -60
-140 -53 -136 41 22 169 283 285 604 319 877 3 25 8 65 11 90 7 58 6 284 -1
347 -9 77 -15 128 -21 159 -14 86 -49 252 -75 363 -17 69 -32 133 -34 141 -52
243 -250 916 -276 945 -5 5 -5 -4 1 -20z"/>
<path d="M11760 9433 c-4 -48 -3 -70 3 -142 17 -172 78 -332 183 -476 77 -106
130 -156 78 -73 -30 47 -134 264 -134 279 0 5 -4 17 -10 27 -19 34 -75 218
-103 342 -9 36 -16 55 -17 43z"/>
<path d="M17837 8794 c-1 -1 -40 -4 -87 -8 -47 -3 -94 -7 -105 -10 -11 -2 -42
-7 -70 -10 -72 -10 -173 -33 -315 -73 -304 -84 -679 -264 -1006 -483 -108 -72
-367 -266 -428 -320 -17 -15 -71 -63 -121 -106 -152 -133 -394 -371 -536 -528
-30 -33 -61 -67 -69 -76 -8 -8 -53 -60 -100 -115 -47 -55 -87 -102 -90 -105
-3 -3 -21 -25 -40 -50 -19 -25 -40 -49 -46 -55 -47 -43 -435 -567 -591 -800
-33 -50 -67 -95 -74 -101 -8 -6 -45 -19 -84 -29 -260 -66 -497 -187 -645 -328
-57 -55 -84 -106 -77 -147 17 -95 82 -186 157 -217 38 -17 47 -18 135 -28 33
-4 61 -8 63 -9 1 -2 -38 -70 -87 -152 -49 -82 -162 -274 -251 -426 -157 -270
-163 -278 -193 -278 -38 -1 -58 -14 -86 -60 -22 -36 -27 -109 -12 -175 5 -24
-4 -54 -47 -145 -29 -63 -57 -124 -61 -135 -5 -11 -18 -40 -29 -65 -11 -25
-79 -194 -152 -376 -117 -291 -132 -335 -126 -368 7 -35 36 -76 54 -76 12 0
32 42 97 200 14 36 36 85 47 110 11 25 43 96 70 159 91 214 249 522 266 521 4
-1 31 -31 61 -68 29 -37 75 -92 101 -122 26 -30 80 -93 120 -140 257 -302 610
-655 870 -870 41 -34 84 -69 95 -78 86 -72 342 -247 440 -302 185 -104 343
-170 547 -229 156 -44 210 -54 390 -67 97 -7 98 -6 135 22 89 67 185 189 232
295 30 67 7 109 -27 48 -65 -118 -124 -180 -216 -224 -135 -64 -297 -74 -441
-28 -116 37 -291 114 -382 169 -17 10 -57 34 -90 53 -147 85 -398 276 -608
464 -242 216 -600 599 -708 757 -17 25 -33 47 -37 50 -24 20 -235 349 -228
355 2 1 39 5 83 9 278 22 511 88 779 222 259 130 434 291 503 464 49 124 61
221 31 269 -7 13 -31 32 -52 43 -112 57 -371 -18 -691 -202 -22 -13 -60 -34
-85 -48 -25 -13 -71 -42 -104 -63 -32 -22 -60 -39 -62 -39 -6 0 -274 -180
-379 -255 -59 -42 -109 -75 -110 -73 -2 2 42 80 97 173 191 323 267 454 323
562 31 59 44 74 71 83 21 7 169 13 396 16 200 2 388 6 418 8 30 3 101 8 157
11 56 3 113 8 125 10 13 2 59 6 103 10 44 3 87 8 95 10 8 2 44 6 80 10 36 4
76 8 90 10 14 2 48 6 75 10 28 3 75 10 105 16 30 5 69 11 85 13 88 12 250 42
415 76 569 118 1142 293 1715 522 216 86 222 89 338 142 42 20 79 36 81 36 19
0 358 166 466 228 89 51 262 167 292 194 7 7 35 31 63 53 131 105 289 294 383
459 151 263 187 555 106 859 -24 91 -107 256 -175 348 -246 331 -652 541
-1134 584 -67 7 -293 13 -298 9z m331 -74 c311 -43 590 -157 821 -334 207
-159 345 -376 376 -591 7 -49 7 -200 0 -240 -19 -109 -64 -252 -88 -282 -5 -7
-6 -13 -3 -13 4 0 -2 -13 -13 -29 -12 -16 -21 -32 -21 -35 0 -4 -12 -25 -27
-49 -192 -298 -527 -582 -994 -842 -179 -100 -521 -270 -694 -345 -66 -28
-133 -58 -150 -65 -16 -7 -43 -18 -60 -23 -16 -6 -63 -24 -103 -41 -40 -17
-150 -58 -245 -91 -94 -34 -183 -65 -197 -70 -30 -11 -318 -100 -340 -105 -8
-2 -82 -22 -165 -45 -306 -84 -772 -172 -1090 -205 -27 -3 -66 -7 -85 -10 -54
-7 -116 -13 -215 -20 -49 -3 -119 -9 -155 -11 -89 -8 -648 -10 -737 -4 l-72 5
90 150 c287 476 574 893 893 1300 61 77 113 142 116 145 3 3 27 32 55 65 27
33 54 65 60 71 5 6 35 40 65 75 203 233 513 541 736 729 104 88 153 127 264
210 472 352 1003 619 1355 681 33 5 71 12 85 15 14 2 59 7 100 10 41 4 76 8
78 9 8 7 285 -5 360 -15z m-4128 -2972 c-46 -73 -102 -162 -125 -198 -23 -36
-71 -111 -106 -167 -57 -91 -67 -102 -89 -98 -14 2 -45 7 -70 10 -66 9 -130
24 -151 36 -22 11 -46 56 -45 84 4 87 197 264 402 365 72 36 257 109 263 104
2 -2 -34 -63 -79 -136z m447 -896 c35 -19 54 -66 54 -135 0 -112 -44 -207
-144 -308 -96 -97 -190 -155 -362 -220 -157 -59 -217 -77 -355 -105 -19 -4
-84 -8 -144 -8 l-109 -1 -28 55 c-50 100 -50 99 33 170 101 86 108 92 148 120
19 13 37 27 40 31 6 8 265 182 331 222 132 81 301 163 371 181 62 15 134 15
165 -2z"/>
<path d="M12180 8151 c0 -5 4 -12 9 -15 13 -8 68 -125 101 -217 30 -79 55
-169 65 -229 3 -19 7 -46 10 -60 12 -61 15 -112 15 -205 0 -69 3 -95 10 -85
15 22 49 134 57 188 7 48 6 186 -1 225 -12 62 -49 159 -81 212 -51 84 -185
219 -185 186z"/>
<path d="M5699 6888 c-9 -7 -37 -41 -63 -74 -46 -61 -48 -62 -84 -54 -20 5
-55 11 -77 13 -106 14 -212 28 -234 32 -14 3 -52 7 -85 10 -34 3 -72 8 -86 10
-14 2 -64 7 -112 11 -48 3 -100 7 -115 9 -192 24 -832 24 -1058 0 -16 -1 -61
-6 -100 -9 -38 -4 -81 -9 -95 -11 -14 -3 -43 -7 -65 -11 -47 -6 -66 -9 -120
-19 -22 -4 -47 -9 -55 -10 -114 -21 -272 -69 -400 -120 -309 -125 -444 -252
-500 -470 -41 -162 -45 -324 -7 -347 20 -13 28 7 33 83 7 107 29 202 61 260
38 71 142 180 216 229 157 102 526 218 817 256 88 11 97 12 170 19 38 4 82 8
97 10 173 21 757 22 948 1 17 -2 64 -6 105 -10 41 -4 86 -8 100 -10 14 -2 52
-7 85 -10 33 -4 67 -9 75 -11 8 -2 42 -7 75 -11 33 -3 62 -8 65 -9 3 -2 24 -6
46 -9 22 -4 51 -8 64 -11 14 -3 40 -8 58 -11 17 -3 32 -8 32 -10 0 -5 -42
-105 -70 -169 -10 -22 -64 -142 -119 -268 -56 -125 -134 -293 -174 -374 l-71
-146 -31 39 c-146 189 -405 396 -588 471 -275 113 -655 102 -987 -29 -82 -32
-242 -108 -250 -118 -3 -4 -13 -9 -22 -13 -10 -3 -53 -30 -95 -58 -424 -285
-671 -694 -728 -1204 -7 -63 -7 -285 0 -340 25 -192 64 -334 123 -450 52 -101
165 -211 268 -261 152 -73 359 -91 524 -44 237 67 620 268 818 427 24 20 45
34 47 32 3 -4 -138 -196 -206 -281 -315 -389 -576 -622 -833 -744 -174 -82
-391 -119 -551 -93 -164 27 -320 167 -386 350 -21 57 -46 78 -68 56 -15 -15
-14 -44 5 -108 49 -173 99 -261 174 -309 50 -32 142 -65 210 -77 69 -11 215
-9 313 4 253 35 490 151 772 377 109 88 332 305 431 421 134 156 228 272 333
412 l113 152 27 -32 c156 -188 218 -248 366 -349 232 -160 386 -205 690 -201
330 3 646 126 949 368 351 279 549 619 592 1015 12 113 11 303 -1 360 -59 264
-126 403 -256 531 -90 89 -175 143 -279 176 -78 26 -97 28 -230 27 -124 -1
-160 -5 -244 -28 -209 -56 -485 -195 -652 -327 -34 -27 -64 -49 -66 -49 -2 0
53 114 122 253 139 281 257 526 332 690 46 100 49 111 37 138 -21 52 -96 84
-130 57z m-1579 -892 c30 -4 73 -12 95 -18 22 -5 50 -12 63 -14 59 -11 196
-60 275 -100 150 -74 277 -176 344 -274 60 -90 61 -82 -15 -138 -37 -27 -104
-68 -149 -91 -86 -43 -133 -93 -133 -142 0 -38 30 -85 68 -107 36 -20 39 -20
64 -4 15 10 46 35 70 57 23 22 55 51 71 64 l28 24 -29 -49 c-82 -140 -135
-223 -231 -364 -57 -85 -156 -231 -218 -325 -145 -217 -197 -267 -458 -438
-196 -128 -343 -207 -489 -261 -54 -20 -147 -46 -168 -47 -4 0 -22 -5 -40 -10
-52 -15 -226 -12 -310 6 -314 64 -495 268 -536 600 -7 64 -7 218 0 320 32 411
264 760 698 1050 214 143 461 239 671 261 35 3 65 7 67 9 5 4 210 -3 262 -9z
m2459 -10 c205 -43 352 -196 400 -416 5 -25 13 -58 16 -75 15 -68 12 -260 -6
-340 -46 -211 -171 -462 -316 -635 -169 -202 -427 -403 -654 -509 -90 -42
-270 -106 -328 -116 -19 -3 -37 -8 -41 -10 -28 -17 -309 -26 -400 -13 -130 19
-206 42 -325 100 -105 50 -185 112 -323 246 l-112 110 103 155 c57 84 143 219
192 298 115 187 365 625 365 638 0 5 37 40 83 76 45 36 93 75 107 86 37 30
178 122 235 154 270 151 533 245 735 262 36 3 66 6 68 8 7 6 142 -7 201 -19z"/>
<path d="M9757 6318 c-41 -79 -159 -228 -273 -344 -278 -280 -613 -470 -999
-565 -65 -16 -140 -31 -165 -35 -126 -16 -119 -23 20 -19 80 2 156 6 170 9 14
3 41 7 60 10 112 17 282 70 409 128 233 106 471 305 621 517 70 99 184 305
178 322 -2 6 -11 -4 -21 -23z"/>
<path d="M11340 5920 c-4 -12 -9 -48 -14 -85 -3 -22 -7 -50 -10 -61 -2 -12 -7
-39 -10 -60 -7 -41 -66 -223 -92 -283 -32 -73 -98 -197 -130 -246 -18 -27 -29
-51 -24 -53 13 -5 88 47 143 97 115 108 175 259 180 455 2 52 -36 259 -43 236z"/>
<path d="M16855 5141 c-103 -40 -186 -83 -283 -147 -48 -32 -89 -60 -92 -63
-3 -4 -39 -33 -80 -66 -41 -33 -126 -111 -187 -173 -255 -255 -451 -539 -571
-822 -128 -306 -153 -550 -70 -689 91 -151 275 -271 417 -273 149 -1 443 121
686 284 92 63 107 76 99 90 -11 17 -46 6 -155 -50 -126 -65 -322 -140 -444
-171 -263 -66 -419 -32 -489 108 -31 61 -38 98 -38 190 1 122 52 321 110 430
93 176 179 311 310 489 58 79 340 368 462 473 136 118 271 212 367 256 178 82
278 -15 195 -190 -38 -82 -170 -217 -349 -357 -67 -52 -118 -96 -114 -98 14
-5 162 48 231 83 144 73 327 241 381 351 25 51 32 77 31 123 -1 188 -215 302
-417 222z"/>
</g>
</svg>
