<?xml version="1.0" encoding="utf-8"?>
<!-- Generator: Adobe Illustrator 26.3.1, SVG Export Plug-In . SVG Version: 6.00 Build 0)  -->
<svg version="1.1" id="Слой_2" xmlns="http://www.w3.org/2000/svg" xmlns:xlink="http://www.w3.org/1999/xlink" x="0px" y="0px"
	 viewBox="0 0 614.87 498.27" style="enable-background:new 0 0 614.87 498.27;" xml:space="preserve">
<style type="text/css">
	.st0{fill:url(#SVGID_1_);}
	.st1{fill:url(#SVGID_00000183963991745223971090000007614252971688450704_);}
	.st2{fill:url(#SVGID_00000027601086793872296610000006893803671475270030_);}
	.st3{fill:url(#SVGID_00000011726057966815418970000008558860982269186740_);}
	.st4{fill:url(#SVGID_00000004546983859696263030000009747233498565976206_);}
	.st5{fill:url(#SVGID_00000106121305255285645520000012196654456815342004_);}
	.st6{fill:url(#SVGID_00000158717469585553561160000005540018532386029443_);}
	.st7{fill:url(#SVGID_00000122698986305670815530000006669260384012714426_);}
	.st8{fill:url(#SVGID_00000023979368297612116170000012488522574297033617_);}
	.st9{fill:url(#SVGID_00000166669380688755155320000001032880630968313729_);}
	.st10{fill:url(#SVGID_00000136384925499234204810000005740850498636114076_);}
	.st11{fill:url(#SVGID_00000016788127886636740410000000013189411972308614_);}
	.st12{fill:url(#SVGID_00000008836948783504116230000018116281342261634970_);}
	.st13{fill:url(#SVGID_00000121247739053211335330000012011724579322947473_);}
	.st14{fill:url(#SVGID_00000007425679439765833670000009093376786158726797_);}
	.st15{fill:url(#SVGID_00000012452087846303302320000018090810637210384292_);}
	.st16{fill:url(#SVGID_00000178166581143750618380000006679668732181954444_);}
	.st17{fill:url(#SVGID_00000174599390285901335080000015083674702601387170_);}
	.st18{fill:url(#SVGID_00000160176658723812472800000000564994605593893285_);}
	.st19{fill:url(#SVGID_00000000944201056506195550000014713631493601177747_);}
	.st20{fill:url(#SVGID_00000115494504728463061570000007839553340150600321_);}
	.st21{fill:url(#SVGID_00000088110281834444946940000006116227310884843658_);}
	.st22{fill:url(#SVGID_00000164490081148776908860000002014049281373837996_);}
	.st23{fill:url(#SVGID_00000174579387067602934080000003933110329805674159_);}
	.st24{fill:url(#SVGID_00000091729872728074202390000002478744832667586727_);}
	.st25{fill:url(#SVGID_00000039845899357056061170000008738859968293582741_);}
	.st26{fill:url(#SVGID_00000166653960680442987450000007757946394606650506_);}
	.st27{fill:url(#SVGID_00000090992820571002515080000012992511208257922178_);}
	.st28{fill:url(#SVGID_00000127045356388317108100000011566985206571923621_);}
	.st29{fill:url(#SVGID_00000116941183163230717210000002579710155884410804_);}
	.st30{fill:#FFFFFF;}
	.st31{display:none;}
	.st32{display:inline;}
</style>
<g>
	<linearGradient id="SVGID_1_" gradientUnits="userSpaceOnUse" x1="250.6227" y1="398.8522" x2="303.2047" y2="398.8522">
		<stop  offset="0" style="stop-color:#F7931E"/>
		<stop  offset="1" style="stop-color:#E90600"/>
	</linearGradient>
	<path class="st0" d="M250.62,415.14c6.09-0.48,18.56-2.3,31.43-10.68c11.61-7.55,18.08-16.89,21.15-22.06
		c-1.73,4.4-6.8,15.56-18.94,23.87C269.86,416.15,255.01,415.49,250.62,415.14z"/>
	
		<linearGradient id="SVGID_00000118385731922001026980000013647110423036548005_" gradientUnits="userSpaceOnUse" x1="309.5677" y1="498.2733" x2="309.5677" y2="0.1208">
		<stop  offset="0" style="stop-color:#F7931E"/>
		<stop  offset="1" style="stop-color:#E90600"/>
	</linearGradient>
	<path style="fill:url(#SVGID_00000118385731922001026980000013647110423036548005_);" d="M350.4,202.43
		c-0.76-6.51-1.31-7.28-0.45-11.85c3.6-3.46,8.17-6.58,12.74-5.75c6.1,1.09,9.53,8.57,10.99,12.1
		c14.68,35.32,38.53,33.01,38.53,33.01c-19.26-12.37-22.02-43.57-22.02-43.57c18.42,42.9,61,33.48,61,33.48
		c-33.41-12.65-40.15-35.95-40.36-36.66c37.7,40.08,97.24,25.65,97.24,25.65c-34.4-7.8-56.88-30.73-56.88-30.73
		c87.15,39.92,135.33-15.14,135.33-15.14c-57.35,12.84-101.37,0-101.37,0c99.5-1.25,127.05-52.75,127.05-52.75
		c-34.86,28.44-111.92,34.86-111.92,34.86c108.71-38.53,105.95-87.15,105.95-87.15c-35.67,48.32-104.22,63.74-106.36,64.2
		C597.98,77.16,578.7,0.12,578.7,0.12c-3.63,65.87-71.11,90.8-72.43,91.28c20.62-14.68,15.12-47.23,15.12-47.23
		c-11.94,51.83-53.68,50-53.68,50c-5.5,22.02-19.26,30.27-19.26,30.27c7.94-0.35,19.26-5.05,19.26-5.05
		c-5.96,24.77-36.69,30.27-36.69,30.27c7.8,2.29,11.01,9.17,11.01,9.17c-42.94-2.7-65.4,15.07-66.05,15.58
		c13.3-22.46,51.83-20.62,51.83-20.62c-5.82-6.19-14.84-6.6-18.29-6.51c44.07-2.65,45.36-20.55,45.36-20.55
		c-7.34,7.34-23.39,4.59-23.39,4.59c41.95-21.43,35.95-62.11,35.95-62.11c-10.27,30.4-40.49,43.36-41.44,43.75
		c11.91-30.71-0.02-36.22-0.02-36.22c-1.09,54.93-51.99,68.01-73.55,71.08c-4.18-3.97-7.73-8.49-10.92-13.41
		c6.88,4.39,13.18,11.47,22.14,3.97c-3.53-2.08-6.81-3.79-9.81-5.87c-3.12-2.15-5.98-4.69-8.34-7.87c5.47,0.85,10.5,3.35,14.77-1.23
		c0.9-0.99,0.12-3.53,0.12-7.06c-4.39,4.92-7.14,3.37-9.51,0.26c-2.31-3.03-4.6-6.09-6.74-9.24c-2.51-3.74-4.94-7.53-7.23-11.41
		c-7.57-12.81-18.82-16.39-32.94-13.81c-3.4,0.6-7.11,0-10.62-0.49c-8.36-1.16-16.69-2.58-25.24-3.18
		c9.12,4.92,18.52,9.05,25.69,17.99c-5.45-1.48-10.13-2.77-14.82-4.08c-0.35,0.44-0.69,0.88-1.02,1.32c3.3,2.96,6.97,5.65,9.9,8.94
		c13.92,15.63,15.95,35.07,6.12,53.49c-1.18,2.21-2.51,3.49-4.6,4.06c-1.38,2.96-3.49,5.4-5.31,8.08c-0.56,0.81-0.99,1.66-1.38,2.49
		c-0.05,0.12-0.12,0.26-0.16,0.39c-3.12-6.67-5.56-14.24-6.32-22.4c0,0-81.64-2.29-83.02-72.01c0,0-11.93,5.5-0.02,36.22
		c-0.95-0.39-31.17-13.35-41.42-43.75c0,0-6.02,40.68,35.94,62.11c0,0-16.05,2.75-23.39-4.59c0,0,1.29,17.91,45.36,20.55
		c-3.46-0.09-12.47,0.32-18.29,6.51c0,0,38.51-1.83,51.81,20.62c-0.64-0.51-23.09-18.28-66.03-15.58c0,0,3.19-6.88,11.01-9.17
		c0,0-30.73-5.5-36.69-30.27c0,0,11.33,4.69,19.26,5.05c0,0-13.76-8.26-19.26-30.27c0,0-41.76,1.83-53.68-50
		c0,0-5.5,32.55,15.14,47.23c-1.32-0.48-68.82-25.4-72.47-91.28c0,0-19.26,77.04,78.86,122.01c-2.13-0.46-70.71-15.88-106.38-64.2
		c0,0-2.75,48.62,105.97,87.15c0,0-77.07-6.42-111.93-34.86c0,0,27.56,51.49,127.07,52.75c0,0-44.03,12.84-101.38,0
		c0,0,48.18,55.06,135.33,15.14c0,0-22.49,22.93-56.89,30.73c0,0,59.54,14.43,97.24-25.65c-0.19,0.71-6.93,24.01-40.35,36.66
		c0,0,42.59,9.42,61-33.48c0,0-2.75,31.21-22.02,43.57c0,0,23.85,2.31,38.53-33.01c7.07-17.04,17.24-13.81,25.86-5.91
		c0.11,0.11,0.21,0.21,0.34,0.32c0.46,0.42,0.9,0.86,1.34,1.32c0.16,0.14,0.34,0.3,0.48,0.48c0.32,0.34,0.65,0.65,0.95,0.99
		c0.28,0.3,0.55,0.62,0.85,0.93c3.19,3.78,9.77,15.54,8.01,19.78h0.02c-3,8.34-4.64,17.02-5.06,26c-0.35,7.73,0.07,15.44,1.13,23.11
		c0.37,2.61,0.95,5.22,1.45,7.82c0.78-12,2.19-23.78,5.68-35.26c0.12,0.19,0.16,0.37,0.12,0.53c-2.33,10.83-1.5,21.59,1.43,32.12
		c2.51,9.1,5.45,18.05,8.29,27.04c0.23-0.34,0.49-0.67,0.76-1.01c2.22-2.73,4.92-4.3,6.99-5.2c-1.55,2.31-4.3,6.95-5.61,13.35
		c2.19,7.87,3.65,15.89,4.06,24.08c0.53,11.04-2.58,21.28-7.66,30.98c-4.27,8.13-9.58,15.54-15.65,22.4
		c-6.14,6.93-12.54,13.62-20.18,18.93c-3.07,2.13-6.37,3.93-9.47,5.82c0,0,0.18,0.05,0.3,0c5.79-1.91,11.66-3.55,17.31-5.77
		c11.94-4.71,22.21-11.91,30.52-21.79c7.89-9.4,12.61-20.27,14.59-32.3c1.18-7.2,1.13-14.48,0.23-21.75l-1.06-8.63
		c1.53,2.86,2.66,5.86,4.02,8.75c2.65,5.61,4.39,11.47,5.01,17.64c0.92,9.47-0.18,18.79-2.28,28.01
		c-2.36,10.43-6.79,20.04-11.36,29.62c-0.04,0.07-0.07,0.12-0.09,0.19c5.22-4.66,10.28-8.15,14.48-10.71
		c-6.23,5.75-13.39,13.32-20.36,22.93c0,0.02-0.02,0.02-0.04,0.04c-2.13,4.55-4.25,9.1-6.19,13.76c-4.34,10.41-6.97,21.29-6.7,32.72
		c0.35,14.24,5.72,25.93,17.29,34.51c3.16,2.33,6.56,4.32,10.37,5.49c-0.44-0.51-0.94-0.95-1.43-1.38c-0.56-0.48-1.15-0.9-1.66-1.43
		c-9.4-10.04-15.1-21.68-15.24-35.65c-0.09-8.91,1.85-17.46,4.92-25.77c4.8-12.93,11.87-24.56,20.68-35.11
		c8.57-10.23,12.49-22.19,13.92-35.14c1.25-11.52,0.41-22.97-1.92-34.29c-0.28-1.34-0.51-2.72-0.76-4.06
		c6.24,13.23,10.48,26.9,9.39,41.74c-1.08,14.45-2.7,28.77-9.93,42.27c0.6-0.42,0.74-0.49,0.85-0.62c0.46-0.56,0.9-1.15,1.32-1.76
		c8.94-13.07,14.92-27.33,17.5-43.01c1.69-10.46,1.99-20.85-0.67-31.21c-0.71-2.8-1.41-5.63-2.13-8.5
		c19.53,42.36,19.95,86.11,10.11,130.72c0.25-0.34,0.55-0.65,0.74-1.02c1.48-2.79,3.03-5.54,4.39-8.4
		c4.66-9.9,7.92-20.27,10.28-30.91c1.27-5.77,2.22-11.54,2.79-17.34v-0.07c-1.48-14.32-5.33-26.04-8.91-34.45
		c2.56,2.66,6.19,6.97,9.33,12.97c-0.21-3.49-0.56-7-1.08-10.51c-1.71-11.71-5.54-22.76-10.27-33.54
		c-4.38-9.95-9.09-19.76-13.28-29.8c-3.4-8.15-2.88-13.8-4.16-27.19c-1.09-11.4-2.4-22.79-3.76-34.21c1.31,1.53,2.88,3.46,4.53,5.75
		c2.29,3.23,4.59,7.18,9.56,16.94c3.19,6.25,5.87,12.23,8.15,17.82c-3.78-23.52-7.37-36.98-10.09-45.07
		c-1.99-5.96-3.28-12.14-5.35-18.06c-0.64-1.83-1.22-3.44-1.73-4.99 M349.93,317.64c-6.51-12.19-18.68-39.53-11.96-71.54
		c1.43-6.74,3.49-12.79,5.8-18.1c-3.12,12.7-6.23,32.35-2.89,55.83C342.8,297.39,346.37,308.79,349.93,317.64z M359.31,235.01"/>
	<g>
		
			<linearGradient id="SVGID_00000158711470310195169200000009536930421843739068_" gradientUnits="userSpaceOnUse" x1="43.1467" y1="41.1002" x2="98.8846" y2="41.1002">
			<stop  offset="0" style="stop-color:#F7931E"/>
			<stop  offset="1" style="stop-color:#E90600"/>
		</linearGradient>
		<path style="fill:url(#SVGID_00000158711470310195169200000009536930421843739068_);" d="M43.15,0.74
			c1.51,9.67,5.07,24.47,14.37,40.16c13.57,22.89,31.92,35.15,41.37,40.56c-1.9-2.66-4.16-6.47-5.78-11.42
			c-2.69-8.23-2.21-15.43-1.61-19.47c-0.9,0.7-3.9,3.22-4.84,7.66c-1.24,5.9,2.18,10.38,2.69,11.01
			c-7.96-6.8-18.1-16.85-27.53-30.76C52.16,24.25,46.51,10.8,43.15,0.74z"/>
		
			<linearGradient id="SVGID_00000059283352457301599960000002064582377091605415_" gradientUnits="userSpaceOnUse" x1="15.7475" y1="82.4672" x2="84.6479" y2="82.4672">
			<stop  offset="0" style="stop-color:#F7931E"/>
			<stop  offset="1" style="stop-color:#E90600"/>
		</linearGradient>
		<path style="fill:url(#SVGID_00000059283352457301599960000002064582377091605415_);" d="M15.75,56.88
			c6.61,8.26,15.83,18.19,28.2,27.8c15.07,11.71,29.62,18.92,40.7,23.37c-11.71-7.15-24.18-15.47-37.07-25.12
			C35.81,74.12,25.21,65.34,15.75,56.88z"/>
		
			<linearGradient id="SVGID_00000165203036546192070280000012972701684005194169_" gradientUnits="userSpaceOnUse" x1="19.3739" y1="124.6401" x2="97.4072" y2="124.6401">
			<stop  offset="0" style="stop-color:#F7931E"/>
			<stop  offset="1" style="stop-color:#E90600"/>
		</linearGradient>
		<path style="fill:url(#SVGID_00000165203036546192070280000012972701684005194169_);" d="M19.37,109.8
			c10.4,4.93,21.6,9.81,33.58,14.51c15.61,6.11,30.51,11.1,44.46,15.18c-11.62-1.04-27.78-3.81-45.66-11.28
			C38.13,122.51,27.34,115.71,19.37,109.8z"/>
		
			<linearGradient id="SVGID_00000056396539781457557120000013426220722383092916_" gradientUnits="userSpaceOnUse" x1="35.6589" y1="163.1425" x2="108.1856" y2="163.1425">
			<stop  offset="0" style="stop-color:#F7931E"/>
			<stop  offset="1" style="stop-color:#E90600"/>
		</linearGradient>
		<path style="fill:url(#SVGID_00000056396539781457557120000013426220722383092916_);" d="M35.66,159.33
			c11.29,3.43,25.98,6.67,43.31,7.45c10.94,0.5,20.78-0.08,29.21-1.11c-10.58-0.89-21.19-1.79-31.83-2.72
			C62.74,161.77,49.18,160.56,35.66,159.33z"/>
		
			<linearGradient id="SVGID_00000047742134342724208820000000719957845458154885_" gradientUnits="userSpaceOnUse" x1="48.5188" y1="191.1623" x2="152.0707" y2="191.1623">
			<stop  offset="0" style="stop-color:#F7931E"/>
			<stop  offset="1" style="stop-color:#E90600"/>
		</linearGradient>
		<path style="fill:url(#SVGID_00000047742134342724208820000000719957845458154885_);" d="M48.52,180.58
			c8.28,5.31,22.45,12.86,41.5,15.85c29.28,4.59,52.46-4.36,62.05-8.73c-6.37,4.15-24.95,15.08-50.77,13.97
			C72.79,200.44,54,185.33,48.52,180.58z"/>
		
			<linearGradient id="SVGID_00000000914615975456347620000001342479048038395547_" gradientUnits="userSpaceOnUse" x1="129.3391" y1="207.2315" x2="197.2321" y2="207.2315">
			<stop  offset="0" style="stop-color:#F7931E"/>
			<stop  offset="1" style="stop-color:#E90600"/>
		</linearGradient>
		<path style="fill:url(#SVGID_00000000914615975456347620000001342479048038395547_);" d="M129.34,213.72
			c7.41,1.05,18.43,1.7,31.33-0.91c17.35-3.51,29.78-11.24,36.57-16.22c-3.36,3.96-13.57,14.99-31.13,19.44
			C148.47,220.51,134.16,215.61,129.34,213.72z"/>
		
			<linearGradient id="SVGID_00000072261288363016920310000012608284185279445939_" gradientUnits="userSpaceOnUse" x1="176.7164" y1="212.8638" x2="223.9257" y2="212.8638">
			<stop  offset="0" style="stop-color:#F7931E"/>
			<stop  offset="1" style="stop-color:#E90600"/>
		</linearGradient>
		<path style="fill:url(#SVGID_00000072261288363016920310000012608284185279445939_);" d="M176.72,224.36
			c5.8,0,18.5-0.83,31.36-8.93c7.77-4.9,12.84-10.72,15.85-14.84c-1.77,3.79-6.18,11.83-15.38,17.8
			C194.65,227.4,180.1,225.01,176.72,224.36z"/>
		
			<linearGradient id="SVGID_00000166638291990510742650000004957291471042123966_" gradientUnits="userSpaceOnUse" x1="223.2208" y1="206.508" x2="274.5937" y2="206.508">
			<stop  offset="0" style="stop-color:#F7931E"/>
			<stop  offset="1" style="stop-color:#E90600"/>
		</linearGradient>
		<path style="fill:url(#SVGID_00000166638291990510742650000004957291471042123966_);" d="M264.52,190.25
			c-2.12-0.93-5.14-2.24-8.26-1.31c-3.61,1.08-5.19,4.54-7.66,9.27c-4.05,7.78-8.73,16.75-14.81,23.07
			c-0.87,0.9-1.99,1.97-3.37,3.11c0,0,0.01,0,0.01,0.01c3.1-2.03,5.3-3.99,6.68-5.34c5.51-5.37,8.35-11.03,15.31-19.74
			c0.82-1.03,2.5-3.08,5.39-4.53c0.65-0.32,2.91-1.43,5.59-1.51c6.29-0.19,10.62,5.4,11.18,6.14
			C273.13,196.96,270.02,192.65,264.52,190.25z"/>
		
			<linearGradient id="SVGID_00000116212208116534313170000015868747256144845727_" gradientUnits="userSpaceOnUse" x1="-12.5601" y1="138.4286" x2="76.9588" y2="138.4286">
			<stop  offset="0" style="stop-color:#F7931E"/>
			<stop  offset="1" style="stop-color:#E90600"/>
		</linearGradient>
		<path style="fill:url(#SVGID_00000116212208116534313170000015868747256144845727_);" d="M0.91,119.03
			c6.62,6.35,15.25,13.46,26.09,20.05c19.08,11.58,37.21,16.76,49.96,19.24c-8.32,0.12-22.48-0.78-38.18-7.66
			C17.13,141.17,4.99,125.74,0,118.53"/>
		
			<linearGradient id="SVGID_00000075147396110389950640000011282732539213786528_" gradientUnits="userSpaceOnUse" x1="0.6344" y1="95.8981" x2="67.1878" y2="95.8981">
			<stop  offset="0" style="stop-color:#F7931E"/>
			<stop  offset="1" style="stop-color:#E90600"/>
		</linearGradient>
		<path style="fill:url(#SVGID_00000075147396110389950640000011282732539213786528_);" d="M9.97,66.42
			c2.05,6.88,5.49,15.42,11.42,24.18c15.03,22.19,36.36,31.4,45.8,34.79c-6.51-1.48-23.31-6.19-37.87-21.49
			C15.34,89.21,11.26,73.02,9.97,66.42z"/>
	</g>
	<g>
		
			<linearGradient id="SVGID_00000018937164744342764000000004750244410200621212_" gradientUnits="userSpaceOnUse" x1="4562.7734" y1="40.3597" x2="4618.5117" y2="40.3597" gradientTransform="matrix(-1 0 0 1 5139.2759 0)">
			<stop  offset="0" style="stop-color:#F7931E"/>
			<stop  offset="1" style="stop-color:#E90600"/>
		</linearGradient>
		<path style="fill:url(#SVGID_00000018937164744342764000000004750244410200621212_);" d="M576.5,0
			c-1.51,9.67-5.07,24.47-14.37,40.16c-13.57,22.89-31.92,35.15-41.37,40.56c1.9-2.66,4.16-6.47,5.78-11.42
			c2.69-8.23,2.21-15.43,1.61-19.47c0.9,0.7,3.9,3.22,4.84,7.66c1.24,5.9-2.18,10.38-2.69,11.01c7.96-6.8,18.1-16.85,27.53-30.76
			C567.49,23.51,573.14,10.06,576.5,0z"/>
		
			<linearGradient id="SVGID_00000018236345695273913910000004359857958329322928_" gradientUnits="userSpaceOnUse" x1="4535.3745" y1="81.7267" x2="4604.2749" y2="81.7267" gradientTransform="matrix(-1 0 0 1 5139.2759 0)">
			<stop  offset="0" style="stop-color:#F7931E"/>
			<stop  offset="1" style="stop-color:#E90600"/>
		</linearGradient>
		<path style="fill:url(#SVGID_00000018236345695273913910000004359857958329322928_);" d="M603.9,56.14
			c-6.61,8.26-15.83,18.19-28.2,27.8c-15.07,11.71-29.62,18.92-40.7,23.37c11.71-7.15,24.18-15.47,37.07-25.12
			C583.84,73.38,594.43,64.6,603.9,56.14z"/>
		
			<linearGradient id="SVGID_00000142889428624094118730000010825717710242671765_" gradientUnits="userSpaceOnUse" x1="4539.001" y1="123.8996" x2="4617.0342" y2="123.8996" gradientTransform="matrix(-1 0 0 1 5139.2759 0)">
			<stop  offset="0" style="stop-color:#F7931E"/>
			<stop  offset="1" style="stop-color:#E90600"/>
		</linearGradient>
		<path style="fill:url(#SVGID_00000142889428624094118730000010825717710242671765_);" d="M600.28,109.06
			c-10.4,4.93-21.6,9.81-33.58,14.51c-15.61,6.11-30.51,11.1-44.46,15.18c11.62-1.04,27.78-3.81,45.66-11.28
			C581.52,121.77,592.3,114.97,600.28,109.06z"/>
		
			<linearGradient id="SVGID_00000110449632814504977720000005213047538153802659_" gradientUnits="userSpaceOnUse" x1="4555.2856" y1="162.402" x2="4627.8125" y2="162.402" gradientTransform="matrix(-1 0 0 1 5139.2759 0)">
			<stop  offset="0" style="stop-color:#F7931E"/>
			<stop  offset="1" style="stop-color:#E90600"/>
		</linearGradient>
		<path style="fill:url(#SVGID_00000110449632814504977720000005213047538153802659_);" d="M583.99,158.58
			c-11.29,3.43-25.98,6.67-43.31,7.45c-10.94,0.5-20.78-0.08-29.21-1.11c10.58-0.89,21.19-1.79,31.83-2.72
			C556.91,161.03,570.47,159.82,583.99,158.58z"/>
		
			<linearGradient id="SVGID_00000083065168420942701110000016973504693839886217_" gradientUnits="userSpaceOnUse" x1="4568.146" y1="190.4218" x2="4671.6978" y2="190.4218" gradientTransform="matrix(-1 0 0 1 5139.2759 0)">
			<stop  offset="0" style="stop-color:#F7931E"/>
			<stop  offset="1" style="stop-color:#E90600"/>
		</linearGradient>
		<path style="fill:url(#SVGID_00000083065168420942701110000016973504693839886217_);" d="M571.13,179.84
			c-8.28,5.31-22.45,12.86-41.5,15.85c-29.28,4.59-52.46-4.36-62.05-8.73c6.37,4.15,24.95,15.08,50.77,13.97
			C546.86,199.7,565.65,184.59,571.13,179.84z"/>
		
			<linearGradient id="SVGID_00000170238437128237648270000006784718987386758832_" gradientUnits="userSpaceOnUse" x1="4648.9658" y1="206.4909" x2="4716.8589" y2="206.4909" gradientTransform="matrix(-1 0 0 1 5139.2759 0)">
			<stop  offset="0" style="stop-color:#F7931E"/>
			<stop  offset="1" style="stop-color:#E90600"/>
		</linearGradient>
		<path style="fill:url(#SVGID_00000170238437128237648270000006784718987386758832_);" d="M490.31,212.98
			c-7.41,1.05-18.43,1.7-31.33-0.91c-17.35-3.51-29.78-11.24-36.57-16.22c3.36,3.96,13.57,14.99,31.13,19.44
			C471.18,219.77,485.48,214.87,490.31,212.98z"/>
		
			<linearGradient id="SVGID_00000134216637275013223220000002793969533042862247_" gradientUnits="userSpaceOnUse" x1="4696.3433" y1="212.1232" x2="4743.5527" y2="212.1232" gradientTransform="matrix(-1 0 0 1 5139.2759 0)">
			<stop  offset="0" style="stop-color:#F7931E"/>
			<stop  offset="1" style="stop-color:#E90600"/>
		</linearGradient>
		<path style="fill:url(#SVGID_00000134216637275013223220000002793969533042862247_);" d="M442.93,223.62
			c-5.8,0-18.5-0.83-31.36-8.93c-7.77-4.9-12.84-10.72-15.85-14.84c1.77,3.79,6.18,11.83,15.38,17.8
			C425,226.66,439.55,224.27,442.93,223.62z"/>
		
			<linearGradient id="SVGID_00000057856257021242902820000016196600240015354499_" gradientUnits="userSpaceOnUse" x1="4743.73" y1="204.487" x2="4795.1025" y2="204.487" gradientTransform="matrix(-1 0 0 1 5139.2759 0)">
			<stop  offset="0" style="stop-color:#F7931E"/>
			<stop  offset="1" style="stop-color:#E90600"/>
		</linearGradient>
		<path style="fill:url(#SVGID_00000057856257021242902820000016196600240015354499_);" d="M384.97,219.25
			c-6.08-6.32-10.75-15.29-14.81-23.07c-2.46-4.72-4.04-8.18-7.66-9.27c-3.12-0.93-6.13,0.38-8.26,1.31
			c-0.65,0.29-1.27,0.6-1.86,0.93c0.22,0.76,0.43,1.52,0.64,2.28c0.74-0.15,1.52-0.22,2.33-0.2c2.68,0.08,4.94,1.19,5.59,1.51
			c2.89,1.45,4.57,3.51,5.39,4.53c6.96,8.72,9.81,14.37,15.31,19.74c1.38,1.34,3.58,3.31,6.68,5.34c0,0,0.01,0,0.01-0.01
			C386.96,221.23,385.84,220.16,384.97,219.25z"/>
		
			<linearGradient id="SVGID_00000031206976970707734270000009025759584589546157_" gradientUnits="userSpaceOnUse" x1="4507.0669" y1="137.6881" x2="4596.5859" y2="137.6881" gradientTransform="matrix(-1 0 0 1 5139.2759 0)">
			<stop  offset="0" style="stop-color:#F7931E"/>
			<stop  offset="1" style="stop-color:#E90600"/>
		</linearGradient>
		<path style="fill:url(#SVGID_00000031206976970707734270000009025759584589546157_);" d="M618.74,118.29
			c-6.62,6.35-15.25,13.46-26.09,20.05c-19.08,11.58-37.21,16.76-49.96,19.24c8.32,0.12,22.48-0.78,38.18-7.66
			c21.65-9.49,33.8-24.93,38.78-32.13"/>
		
			<linearGradient id="SVGID_00000079478412183387783760000006126769329152233891_" gradientUnits="userSpaceOnUse" x1="4520.2612" y1="95.1576" x2="4586.8149" y2="95.1576" gradientTransform="matrix(-1 0 0 1 5139.2759 0)">
			<stop  offset="0" style="stop-color:#F7931E"/>
			<stop  offset="1" style="stop-color:#E90600"/>
		</linearGradient>
		<path style="fill:url(#SVGID_00000079478412183387783760000006126769329152233891_);" d="M609.68,65.68
			c-2.05,6.88-5.49,15.42-11.42,24.18c-15.03,22.19-36.36,31.4-45.8,34.79c6.51-1.48,23.31-6.19,37.87-21.49
			C604.31,88.47,608.39,72.28,609.68,65.68z"/>
	</g>
	
		<linearGradient id="SVGID_00000140727644365065807850000016126488035846163640_" gradientUnits="userSpaceOnUse" x1="274.7003" y1="320.6408" x2="291.2667" y2="320.6408">
		<stop  offset="0" style="stop-color:#F7931E"/>
		<stop  offset="1" style="stop-color:#E90600"/>
	</linearGradient>
	<path style="fill:url(#SVGID_00000140727644365065807850000016126488035846163640_);" d="M277.56,270.21
		c2.27,6.46,5.33,15.9,8.19,27.53c3.65,14.84,5.63,22.92,5.51,32.23c-0.1,7.81-1.78,22.99-14.24,41.1c3.38-6.9,7.54-17.43,9-30.76
		c0.45-4.09,0.91-10.91-0.94-27.4C283.87,302.08,281.71,287.47,277.56,270.21z"/>
	
		<linearGradient id="SVGID_00000126299365297315453180000006966730860428878467_" gradientUnits="userSpaceOnUse" x1="327.2837" y1="115.3632" x2="327.2837" y2="382.4019">
		<stop  offset="0" style="stop-color:#4D4D4D"/>
		<stop  offset="1" style="stop-color:#000000"/>
	</linearGradient>
	<path style="fill:url(#SVGID_00000126299365297315453180000006966730860428878467_);" d="M315.35,353.61
		c-0.03,0.12-0.46,1.84-0.46,1.84l0,0c0,0-0.64,2.38-1.1,3.3c-0.45,0.92-0.26,2.66-0.26,2.66c-1.01,1.35-1.58,2.95-1.73,4.63
		c-0.02,0.25-0.06,0.51-0.11,0.78c-0.3,1.6-1.24,3.6-1.28,4.49c-0.04,0.88,0.86,3.17,1.47,5.42c0.65,2.42,1,4.77,1,4.77
		s2.25,0.67,4.43,0.87l1.63,0.03c2.43-0.14,5.13-1.27,5.13-1.27l1.02-5.69c0,0,1.09,4.32,1.56,4.59c0.15,0.09,1.39,0.13,2.95,0.1
		l1.41-0.04c2.78-0.12,5.89-0.45,6.1-1.07c0.36-1.09,2.01-7.43,1.92-9.17s-3.49-10.36-3.49-10.36s-0.83-4.49-2.38-10.09
		c-1.56-5.6-1.74-11.83-1.74-11.83s5.96-15.13,7.61-21.74c1.66-6.6,0.36-19.53,0.36-19.53s0.38-2.38,0.55-4.77
		c0.11-1.46,0.22-5.1,0.36-7.44c0.1-1.5,0.1-0.82,0.28-2.24c0.14-1.09,6.96-21.85,9.26-38.1c0.12-0.87,0.23-1.73,0.33-2.58
		c0.41-3.55,0.55-6.81,0.3-9.48c-0.03-0.35-0.08-0.7-0.12-1.03c-0.34-2.41-0.9-4.79-1.61-7.09c-3.54-11.6-10.63-21.05-10.63-21.05
		s1.24-4.75,1.72-8.32c0.47-3.59,0.75-6.06,0.75-6.06s1.38-2.75,1.59-4.34c0.07-0.5,0.06-1.14,0.01-1.79
		c-0.09-1.31-0.32-2.67-0.34-2.87c0.04,0.12,0.36,0.94,0.84,2.17c0.86,2.3,2.24,6.05,3.41,9.65c0.75,2.28,1.74,4.33,2.41,6.11
		c0.99,2.67,1.51,4.61,1.51,4.61s5.51,10.18,8.81,15.06c0.73,1.06,1.8,2.42,3.01,3.88c0.61,0.73,1.26,1.5,1.92,2.27
		c1.46,1.73,2.97,3.49,4.22,5.05c0.04,0.06,0.09,0.1,0.13,0.15c2.13,2.68,3.24,4.26,3.31,4.8c0.07,0.55-0.7,3.44-1.32,5.9
		c-0.64,2.47-1.02,4.72-1.02,5.1c0,0.39,0.74,2.27,1.38,4.13c0.25,0.76,0.51,1.52,0.72,2.19c0.39,1.2,0.65,2.09,0.65,2.09
		s0.34-0.14,0.89-0.49c0.46-0.29,0.84-0.93,0.94-1.11c0.02-0.03,0.03-0.06,0.03-0.06s0.01,0.02,0.02,0.06h0.01
		c0.14,0.31,0.98,2.01,1.48,2.01c0.31,0,0.54-0.61,0.75-0.89c0.17-0.22,0.34-0.13,0.34-0.13s0.28,0.54,0.89,0.41
		c0.63-0.14-0.13-1.72-0.13-1.72s-2.45-3.61-3.23-6.53c-0.41-1.52,0.35-2.97,0.6-3.4c0.01-0.02,0.01-0.03,0.02-0.04
		c1.28-2.22,3.72-4.54,3.72-4.54s1.09,3.44,1.79,3.98c0.01,0.01,0.03,0.02,0.04,0.03c0.2,0.14,0.43,0.2,0.67,0.21
		c0.61,0.02,1.25-0.33,1.35-0.72c0.08-0.3-0.39-2.56-0.95-4.73c-0.46-1.78-0.98-3.51-1.32-4.07c-0.38-0.62-1.36-1.02-1.92-1.66
		c-0.13-0.14-0.36-0.72-0.89-1.51c-0.02-0.04-0.06-0.08-0.08-0.12c-0.74-1.09-1.79-2.65-2.97-4.43c-1.87-2.8-4.05-6.17-5.86-9.14
		c-1.94-3.2-4.05-8.2-6.14-12.57c-2.04-4.26-4.08-7.94-4.08-7.94s-2.73-9.42-3.65-13.07c-0.25-1.02-0.79-3.17-1.06-5.81
		c-0.01-0.11-0.02-0.21-0.03-0.32c-0.12-1.27-0.18-2.63-0.25-4.03c-0.09-1.78-0.21-3.6-0.51-5.33c-0.03-0.18-0.07-0.35-0.09-0.52
		c-0.76-4.44-1.04-6.82-2.94-8.63c-0.65-0.61-3.01-2.62-7.98-2.22c-3.69-0.31-4.66-1.71-4.94-2.26c-0.62-1.2-0.1-2.35,1.09-6.67
		c0.51-1.85,1.21-4.34,1.45-5.71c0.62-3.71,0.2-9.49,0.2-9.49s-0.75-11.15-12.52-13.28c-11.76-2.13-11.95,2.55-13.28,3.85
		c-3.04,2.96-1.13,8.94-1.13,8.94s-1.1,1.47-1.29,2.3c-0.08,0.39-0.09,0.66-0.09,2.66v1.6c-0.25,0.67-0.42,1.29-0.52,1.79
		c-0.18,0.88-0.21,1.63-0.21,2.12v0.06c0,0.56,0.01,3.69,0.28,4.27c0.15,0.35,0.51,0.28,0.84,0.53c0.6,0.45,0.6,1.25,0.63,1.57
		c0.1,1.21-0.51,2.2-0.88,2.78c-1.25,1.93-3.15,2.65-3.68,2.84c-0.84,0.31-1.5,0.39-1.73,0.41c-1.77,0.21-7.81,0.58-9.35,2.68
		c-1.02,1.38-1.56,6.05-1.98,11.29c-0.15,1.83-0.29,3.73-0.42,5.58c-0.12,1.59-0.23,3.15-0.36,4.59c-0.33,3.83-1.19,6.93-1.45,7.91
		c-0.58,2.37-1.39,6.82-1.71,8.63c-0.09,0.5-0.14,0.79-0.14,0.79s-1.74,2.94-3.3,6.94c-0.18,0.44-0.34,0.9-0.53,1.37
		c-0.83,2.23-1.66,4.67-2.42,6.91c-0.95,2.77-1.79,5.25-2.42,6.72c-2.21,5.16-6.61,12.17-6.61,12.17s-1.58,1.25-1.72,1.8
		c-0.1,0.41-0.11,1.08-0.14,2.22v0.01c-0.01,0.38-0.03,0.79-0.06,1.27c-0.13,2.51-0.43,5.63-0.28,6.06
		c0.28,0.76,0.96,0.96,1.58,0.83c0.19-0.04,0.45-0.57,0.73-1.29c0.66-1.69,1.4-4.43,1.4-4.43s0.5,0.54,1.11,1.23
		c0.97,1.09,2.23,2.56,2.19,2.77c-0.07,0.34-2.26,4.68-2.26,4.68s-1.51,0.34-2.21,0.34c-0.68,0-1.03,1.3-1.03,1.3h0.62l-0.55,0.42
		c0,0-0.34,1.3-0.07,1.51c0.28,0.21,4.13-1.1,4.13-1.1s-0.28,1.1,0.07,1.38c0.34,0.28,0.68,0.49,0.68,0.49s0.06-0.08,0.15-0.21
		c0,0,0,0,0-0.01c0.59-0.81,2.68-3.72,3.9-5.55c0.49-0.72,0.84-1.27,0.91-1.46c0.14-0.4,0.23-1.69,0.34-2.96
		c0.1-1.14,0.24-2.26,0.14-2.68c-0.21-0.89-2.3-3.85-2.3-3.85s0.81-1.29,2.04-3.3c1.41-2.28,3.38-5.52,5.35-8.87
		c2.21-3.73,4.44-7.61,5.9-10.48c3.95-7.7,7.53-22.19,7.53-22.19s0.55,5.22,0.83,8.53c0.1,1.3,0.86,3.1,1.37,5.22
		c0.78,3.26,1.38,6.79,1.38,6.79s-6.22,8.49-8.16,19.81c-0.21,1.19-0.36,2.43-0.46,3.68c-0.01,0.13-0.02,0.28-0.02,0.42
		c-0.24,3.71,0.08,8.83,1.06,14.42c0.6,3.42,1.43,7.02,2.54,10.56c3.6,11.59,9.39,22.77,10.55,26.33c2.11,6.51,2.66,14.3,2.66,14.3
		s0.26,1.78,0.18,4.87c-0.11,4.16-0.57,10.2-0.36,12.56c0.36,4.13,5.41,23.76,5.41,23.76c-0.2,6.68-1.24,9.92-2.2,11.64
		C317.74,348.01,315.96,351.22,315.35,353.61z M325.51,270.21c0,0-0.64-2.57-1.26-6.42c-0.42-2.73-0.84-6.08-1.02-9.61
		c-0.41-8.52-1.88-11.11-1.88-11.11s1.45,0.14,3.51,0.08c2.06-0.08,3.23-0.42,3.23-0.42s-2.02,5.76-1.35,11.47
		c0.46,3.9-0.29,9.95-0.82,13.4C325.7,269.17,325.51,270.21,325.51,270.21z"/>
	
		<linearGradient id="SVGID_00000039123320738296204390000003899421403522881665_" gradientUnits="userSpaceOnUse" x1="304.7731" y1="438.172" x2="335.3569" y2="438.172">
		<stop  offset="0" style="stop-color:#F7931E"/>
		<stop  offset="1" style="stop-color:#E90600"/>
	</linearGradient>
	<path style="fill:url(#SVGID_00000039123320738296204390000003899421403522881665_);" d="M335.36,388.55
		c-1,2.74-2.81,7.05-5.92,11.84c-2.2,3.38-4.14,5.62-4.78,6.37c-3.35,3.96-14.04,18.28-17.98,37.33c-1.58,7.62-3.65,18.3,0.68,30.5
		c2.12,5.96,5.09,10.39,7.28,13.2c-2.88-6.42-6.56-17.12-6.15-30.5c0.45-14.58,5.56-25.5,7.74-30.05
		c3.77-7.86,7.51-13.43,7.51-13.43c3.9-5.81,6.31-7.99,8.56-13.01C334.49,395.95,335.14,391.5,335.36,388.55z"/>
	
		<linearGradient id="SVGID_00000009586552153461725340000011634509483283656624_" gradientUnits="userSpaceOnUse" x1="348.8031" y1="396.6867" x2="348.8031" y2="422.7501">
		<stop  offset="0" style="stop-color:#F7931E"/>
		<stop  offset="1" style="stop-color:#E90600"/>
	</linearGradient>
	<path style="fill:url(#SVGID_00000009586552153461725340000011634509483283656624_);" d="M352.88,396.69
		c-0.29,3.11-0.9,6.84-2.16,10.93c-2.03,6.59-4.97,11.65-7.4,15.14c1.99-0.96,5.08-2.83,7.51-6.26
		C356.79,408.07,353.32,397.89,352.88,396.69z"/>
	
		<linearGradient id="SVGID_00000160888623786201291780000002650312063796959619_" gradientUnits="userSpaceOnUse" x1="331.3203" y1="427.3027" x2="331.3203" y2="459.1707">
		<stop  offset="0" style="stop-color:#F7931E"/>
		<stop  offset="1" style="stop-color:#E90600"/>
	</linearGradient>
	<path style="fill:url(#SVGID_00000160888623786201291780000002650312063796959619_);" d="M335.36,427.3
		c-1.35,1.11-6.69,5.76-7.85,13.77c-1.46,10.04,4.81,17.13,5.69,18.1c-1.2-3.94-2.66-10.67-1.59-18.89
		C332.31,434.81,333.93,430.4,335.36,427.3z"/>
	
		<linearGradient id="SVGID_00000155836623940043204330000009729587030585048973_" gradientUnits="userSpaceOnUse" x1="276.9137" y1="421.2706" x2="276.9137" y2="455.0734">
		<stop  offset="0" style="stop-color:#F7931E"/>
		<stop  offset="1" style="stop-color:#E90600"/>
	</linearGradient>
	<path style="fill:url(#SVGID_00000155836623940043204330000009729587030585048973_);" d="M280.27,421.27
		c-1.83,2.47-4.08,6.19-5.46,11.1c-2.93,10.44,0.03,19.33,1.37,22.71c-0.3-6.24-0.09-13.78,1.37-22.19
		C278.28,428.64,279.23,424.76,280.27,421.27z"/>
	
		<linearGradient id="SVGID_00000018222203005698209850000007486079797626726576_" gradientUnits="userSpaceOnUse" x1="384.1893" y1="324.6422" x2="384.1893" y2="352.1284">
		<stop  offset="0" style="stop-color:#F7931E"/>
		<stop  offset="1" style="stop-color:#E90600"/>
	</linearGradient>
	<path style="fill:url(#SVGID_00000018222203005698209850000007486079797626726576_);" d="M379.63,324.64
		c1.79,2.93,4.05,7.37,5.46,13.15c1.43,5.86,1.45,10.9,1.2,14.34c0.66-1.3,4.5-9.2,1.02-17.93
		C385.19,328.87,381.38,325.86,379.63,324.64z"/>
	
		<linearGradient id="SVGID_00000152241910201183297270000006298495373828129695_" gradientUnits="userSpaceOnUse" x1="371.0967" y1="282.7586" x2="371.0967" y2="308.0253">
		<stop  offset="0" style="stop-color:#F7931E"/>
		<stop  offset="1" style="stop-color:#E90600"/>
	</linearGradient>
	<path style="fill:url(#SVGID_00000152241910201183297270000006298495373828129695_);" d="M366.43,282.76
		c-0.23,2.75-0.28,7.62,1.71,13.2c2.17,6.12,5.72,10.1,7.74,12.06c-2.04-3.38-4.27-7.68-6.15-12.86
		C368.06,290.56,367.05,286.34,366.43,282.76z"/>
	<path class="st30" d="M296.75,328.14"/>
</g>
<g class="st31">
	<path class="st32" d="M164.95,374.9c-6.62-1.35-13.27-2.33-19.94-2.94c-6.68-0.62-13.24-0.9-19.69-0.84
		c-6.45,0.06-12.62,0.42-18.51,1.09c-5.89,0.67-11.25,1.68-16.07,3.03c-3.48,0.9-7.07,2.19-10.77,3.87
		c-3.7,1.68-6.84,4.32-9.42,7.91c-1.24,1.91-1.99,3.9-2.27,5.97c-0.28,2.08-0.42,3.79-0.42,5.13c0,0.67-0.2,1.09-0.59,1.26
		c-0.39,0.17-0.7-0.08-0.93-0.76c-0.45-1.57-0.5-3.56-0.17-5.97c0.34-2.41,0.84-4.63,1.51-6.65c1.35-3.7,3.84-6.7,7.49-9
		c3.64-2.3,8.33-4.35,14.05-6.14c4.71-1.35,10.07-2.38,16.07-3.11c6-0.73,12.42-1.12,19.27-1.18c6.84-0.06,13.96,0.23,21.37,0.84
		c7.4,0.62,14.81,1.54,22.21,2.78c0.78-1.12,1.43-1.99,1.93-2.61c0.5-0.62,0.87-1.09,1.09-1.43c0.45-0.45,1.01-0.64,1.68-0.59
		c0.67,0.06,1.26,0.28,1.77,0.67c0.5,0.39,0.9,0.87,1.18,1.43c0.28,0.56,0.31,1.07,0.08,1.51c-4.94,10.77-10.38,21.99-16.32,33.65
		c2.8-2.36,6-4.54,9.59-6.56c9.76-5.61,18.28-7.85,25.57-6.73c4.71,0.56,8.86,2.69,12.45,6.39c3.81,3.48,6.34,8.41,7.57,14.81
		c0.56,1.12,0.9,2.55,1.01,4.29c0.11,1.74,0.11,3.34,0,4.79c-0.23,15.48-7.13,28.33-20.7,38.53c-13.12,9.87-26.87,13.01-41.22,9.42
		c-1.01-0.22-2.27-0.7-3.78-1.43c-1.51-0.73-3.06-1.6-4.63-2.61c-1.57-1.01-3.09-2.07-4.54-3.2c-1.46-1.12-2.64-2.13-3.53-3.03
		c-2.81-3.03-4.88-5.44-6.23-7.24c-5.72,8.08-11.58,15.34-17.58,21.79c-6,6.45-12.14,11.64-18.43,15.57
		c-3.03,2.02-6.2,3.59-9.51,4.71c-3.31,1.12-6.56,1.82-9.76,2.1c-3.2,0.28-6.17,0.14-8.92-0.42c-2.75-0.56-5.02-1.57-6.82-3.03
		c-1.24-1.12-2.24-2.75-3.03-4.88c-0.79-2.13-1.4-4.15-1.85-6.06c-0.34-1.01-0.11-1.63,0.67-1.85c0.78-0.22,1.29,0.17,1.51,1.18
		c0.56,1.91,1.43,3.67,2.61,5.3c1.18,1.63,2.44,3,3.79,4.12c1.46,1.24,3.28,2.08,5.47,2.52c2.19,0.45,4.6,0.56,7.24,0.34
		c2.63-0.22,5.38-0.84,8.24-1.85c2.86-1.01,5.64-2.41,8.33-4.21c4.82-3.25,9.68-7.54,14.55-12.87c4.88-5.33,9.68-11.36,14.39-18.09
		c-3.36,2.92-7.18,5.55-11.44,7.91c-4.82,2.8-9.54,5.05-14.13,6.73c-4.6,1.68-8.75,2.24-12.45,1.68c-2.24-0.22-4.49-0.81-6.73-1.77
		c-2.24-0.95-4.21-2.33-5.89-4.12c-1.46-1.35-2.69-3.05-3.7-5.13c-1.01-2.07-1.8-4.29-2.36-6.65c-0.56-2.36-0.98-4.77-1.26-7.23
		c-0.28-2.47-0.37-4.77-0.25-6.9c0.11-7.74,1.91-15.2,5.38-22.38c3.48-7.18,8.64-13.35,15.48-18.51c3.36-2.47,6.95-4.6,10.77-6.39
		c3.81-1.79,7.68-3.11,11.61-3.96c3.93-0.84,7.82-1.2,11.69-1.09c3.87,0.11,7.54,0.79,11.02,2.02c1.79,0.67,3.67,1.6,5.64,2.78
		c1.96,1.18,3.87,2.52,5.72,4.04c1.85,1.51,3.62,3.14,5.3,4.88c1.68,1.74,3.14,3.51,4.37,5.3c2.92-5.83,5.47-11.19,7.66-16.07
		C160.66,384.91,162.82,379.94,164.95,374.9z M123.39,394.92c-6.84-1.23-13.49-0.93-19.94,0.93c-6.45,1.85-12.7,5.13-18.76,9.84
		c-12.45,9.42-18.68,20.86-18.68,34.33c-0.23,3.93,0,7.23,0.67,9.93c1.79,9.09,7.57,14.58,17.33,16.49
		c4.15,0.79,8.55,0.5,13.21-0.84c4.65-1.35,9.84-3.81,15.56-7.4c6.06-3.7,10.71-7.18,13.97-10.43c1.35-2.02,2.86-4.29,4.54-6.81
		c1.68-2.52,3.42-5.08,5.21-7.66c1.79-2.58,3.51-5.16,5.13-7.74c1.62-2.58,3.05-4.99,4.29-7.24l-4.38,3.87
		c-1.35,1.35-2.24,1.68-2.69,1.01c-1.01-0.34-1.8-1.09-2.36-2.27c-0.56-1.18-0.39-2.27,0.5-3.28c0.22-0.9,1.29-1.74,3.2-2.52
		c1.91-0.78,4.32-2.36,7.24-4.71c-1.35-2.8-3.2-5.16-5.55-7.07c-2.36-1.91-4.74-3.45-7.15-4.63c-2.41-1.18-4.69-2.04-6.82-2.61
		C125.81,395.54,124.29,395.15,123.39,394.92z M136.86,452.29c4.93,5.16,10.43,8.44,16.49,9.84c6.06,1.4,12.11,1.37,18.17-0.08
		c6.06-1.46,11.86-4.01,17.42-7.66c5.55-3.64,10.32-7.93,14.3-12.87c3.98-4.94,6.9-10.24,8.75-15.9c1.85-5.66,2.16-11.19,0.93-16.57
		c-0.9-4.71-2.89-8.36-5.97-10.94c-3.09-2.58-7.26-3.87-12.53-3.87c-4.26,0-9.06,0.95-14.39,2.86c-5.33,1.91-10.85,4.66-16.57,8.25
		c-2.24,1.57-3.95,2.86-5.13,3.87c-1.18,1.01-2.44,1.96-3.78,2.86c-3.48,6.39-7.01,12.59-10.6,18.59c-3.59,6-7.35,11.81-11.27,17.42
		L136.86,452.29z"/>
	<path class="st32" d="M272.98,441.69c-1.12,1.24-2.95,2.72-5.47,4.46c-2.52,1.74-5.36,2.84-8.5,3.28c-1.91,0.34-4.74,0.56-8.5,0.67
		c-3.76,0.11-7.88,0.23-12.37,0.34c-4.49,0.11-8.98,0.17-13.46,0.17c-4.49,0-8.41,0-11.78,0c-1.24,1.68-2.55,3.56-3.95,5.64
		c-1.4,2.08-2.72,4.29-3.95,6.64c-1.24,2.36-2.3,4.8-3.2,7.32c-0.9,2.52-1.4,5.13-1.51,7.82c-0.11,2.47,0.14,4.49,0.76,6.06
		c0.62,1.57,1.46,2.78,2.52,3.62c1.06,0.84,2.3,1.4,3.7,1.68c1.4,0.28,2.83,0.37,4.29,0.25c3.7-0.56,7.66-1.62,11.86-3.2
		c4.21-1.57,7.82-3.2,10.85-4.88c0.9-0.56,1.57-0.64,2.02-0.25c0.45,0.39,0.22,0.87-0.67,1.43c-1.24,0.9-2.69,1.88-4.37,2.94
		c-1.68,1.07-3.53,2.1-5.55,3.11s-4.12,1.93-6.31,2.78c-2.19,0.84-4.29,1.43-6.31,1.77c-1.68,0.34-3.53,0.14-5.55-0.59
		c-2.02-0.73-3.87-1.82-5.55-3.28c-1.68-1.46-3.09-3.17-4.21-5.13c-1.12-1.96-1.63-4.06-1.51-6.31c0.34-6.17,2.04-12.34,5.13-18.51
		c3.08-6.17,6.84-11.92,11.27-17.25c4.43-5.33,9.09-9.93,13.96-13.8c4.88-3.87,9.28-6.59,13.21-8.16c2.13-0.67,4.04-0.59,5.72,0.25
		c1.68,0.84,3,2.08,3.95,3.7c0.95,1.63,1.51,3.45,1.68,5.47c0.17,2.02-0.25,3.87-1.26,5.55c-1.68,3.14-4.71,5.78-9.09,7.91
		c-4.37,2.13-9.37,3.65-14.97,4.54c3.03,0,6.11,0,9.25,0c3.25,0,6.34-0.03,9.25-0.08c2.91-0.06,5.64-0.14,8.16-0.25
		c2.52-0.11,4.68-0.28,6.48-0.5c2.36-0.22,4.74-0.95,7.15-2.19c2.41-1.23,4.29-2.47,5.64-3.7c0.56-0.78,1.04-1.06,1.43-0.84
		C273.62,440.41,273.54,440.91,272.98,441.69z M245.88,433.79c1.12-1.79,1.74-3.36,1.85-4.71c0.11-1.35-0.17-2.38-0.84-3.11
		c-0.67-0.73-1.66-1.06-2.94-1.01c-1.29,0.06-2.78,0.53-4.46,1.43c-4.15,2.36-8.36,5.47-12.62,9.34c-4.27,3.87-8.3,7.88-12.12,12.03
		c2.92,0,5.95-0.34,9.09-1.01c3.14-0.67,6.11-1.65,8.92-2.94c2.8-1.29,5.36-2.78,7.66-4.46
		C242.72,437.66,244.54,435.81,245.88,433.79z"/>
	<path class="st32" d="M305.11,451.12c0.34-0.34,0.78-0.95,1.35-1.85c0.56-0.9,1.12-1.85,1.68-2.86c0.56-1.01,1.06-1.93,1.51-2.78
		c0.45-0.84,0.84-1.32,1.18-1.43c1.23-0.56,2.07-1.01,2.52-1.35c0.45-0.34,1.06-0.34,1.85,0c1.57,0.56,1.51,1.85-0.17,3.87
		c-8.08,10.43-15.26,22.21-21.54,35.34c-3.14,6.73-5.52,12.7-7.15,17.92c-1.63,5.22-2.55,9.79-2.78,13.71
		c-0.45,5.05,0.62,9.03,3.2,11.95c2.36,2.47,5.44,3.7,9.25,3.7c1.91,0,3.53-0.23,4.88-0.67c3.25-0.9,6.87-2.58,10.85-5.05
		c3.98-2.47,8.38-5.78,13.21-9.93c10.66-9.09,15.99-16.38,15.99-21.87c0-1.68-0.5-2.72-1.51-3.11c-1.01-0.39-1.96-0.59-2.86-0.59
		c-0.45,0-0.67-0.17-0.67-0.5c0-0.67,0.48-1.23,1.43-1.68c0.95-0.45,1.82-0.67,2.61-0.67c1.91,0,2.86,1.29,2.86,3.87
		c0,1.24-0.34,2.86-1.01,4.88c-1.01,3.25-2.8,6.67-5.38,10.26c-2.58,3.59-5.84,7.35-9.76,11.27c-10.88,10.66-22.55,16.66-35,18
		c-4.49,0.45-8.19-0.79-11.11-3.7c-3.14-3.25-4.43-8.53-3.87-15.82c0.67-7.96,4.21-18.12,10.6-30.45c1.79-3.48,3.59-6.84,5.38-10.1
		c1.79-3.25,3.7-6.51,5.72-9.76c-1.68,0.56-3.56,1.15-5.64,1.77c-2.08,0.62-4.21,1.24-6.39,1.85c-2.19,0.62-4.29,1.26-6.31,1.93
		c-2.02,0.67-3.87,1.24-5.55,1.68c-1.57,0.9-2.89,1.54-3.95,1.94c-1.07,0.39-1.94-0.19-2.61-1.77c-0.9,1.91-1.68,3.68-2.36,5.3
		c-0.67,1.63-1.12,3.11-1.35,4.46c0,0.23-0.14,0.81-0.42,1.77c-0.28,0.95-0.62,2.02-1.01,3.2c-0.39,1.18-0.79,2.33-1.18,3.45
		c-0.39,1.12-0.76,1.96-1.09,2.52c-0.67,1.12-3.14,1.68-7.4,1.68c-1.24,0-1.91-0.22-2.02-0.67c-0.45-0.45-0.34-1.35,0.34-2.69
		c2.47-5.39,6.84-12.84,13.12-22.38c0.45-0.56,0.87-1.15,1.26-1.77c0.39-0.62,0.76-1.2,1.09-1.77c0.11-0.78,0.39-1.18,0.84-1.18
		c2.24-3.36,4.37-6.42,6.39-9.17c2.02-2.75,3.98-5.24,5.89-7.49c0.56-1.01,1.96-1.74,4.21-2.19c0.67-0.11,1.06-0.11,1.18,0
		c0,0.45-0.17,0.84-0.5,1.18c-0.45,0.45-1.18,1.37-2.19,2.78c-1.01,1.4-2.19,3.06-3.53,4.97c-1.35,1.91-2.81,4.04-4.38,6.39
		c-1.57,2.36-3.03,4.71-4.37,7.07c0,0.11,0.06,0.23,0.17,0.34c0.56,1.12,1.88,1.63,3.96,1.51c2.07-0.11,4.6-0.59,7.57-1.43
		c2.97-0.84,6.14-1.93,9.51-3.28c3.36-1.35,6.56-2.75,9.59-4.21c0.56-0.78,1.12-1.54,1.68-2.27c0.56-0.73,1.12-1.54,1.68-2.44
		C304.94,452.35,305.11,451.79,305.11,451.12z"/>
	<path class="st32" d="M388.23,443.55c-1.57,2.36-3.31,5.21-5.22,8.58c-1.91,3.36-3.73,6.81-5.47,10.35
		c-1.74,3.53-3.28,6.98-4.63,10.35c-1.35,3.36-2.19,6.17-2.52,8.41c-0.34,2.02-0.37,3.48-0.08,4.38c0.28,0.9,0.7,1.43,1.26,1.6
		c0.56,0.17,1.26,0.14,2.1-0.08c0.84-0.22,1.65-0.45,2.44-0.67c0.78-0.22,1.74-0.59,2.86-1.09c1.12-0.5,2.02-0.98,2.69-1.43
		c1.79-1.23,2.78-1.37,2.94-0.42c0.17,0.95-0.42,2.05-1.77,3.28c-1.12,1.24-2.5,2.38-4.12,3.45c-1.63,1.07-3.17,1.88-4.63,2.44
		c-0.67,0.23-1.51,0.11-2.52-0.34c-1.01-0.45-1.93-1.09-2.78-1.93c-0.84-0.84-1.57-1.79-2.19-2.86c-0.62-1.06-0.93-2.16-0.93-3.28
		c0-2.13,0.25-4.37,0.76-6.73c0.5-2.36,1.15-4.65,1.93-6.9c0.78-2.24,1.65-4.46,2.61-6.65c0.95-2.19,1.82-4.23,2.61-6.14
		c0.67-1.68,0.67-3.05,0-4.12c-0.67-1.07-2.02-0.59-4.04,1.43c-2.69,2.69-6.2,6.09-10.52,10.18c-4.32,4.1-8.67,8.13-13.04,12.11
		c-4.37,3.98-8.44,7.52-12.2,10.6c-3.76,3.09-6.53,4.91-8.33,5.47c-3.03,1.01-5.5,0.53-7.4-1.43c-1.91-1.96-2.75-4.35-2.52-7.15
		c0.22-2.58,0.93-5.55,2.1-8.92c1.18-3.37,2.69-6.82,4.54-10.35c1.85-3.53,3.87-7.12,6.06-10.77c2.19-3.64,4.4-7.09,6.65-10.35
		c2.24-3.25,4.35-6.2,6.31-8.83c1.96-2.63,3.67-4.79,5.13-6.48c0.56-0.67,1.32-1.15,2.27-1.43c0.95-0.28,1.77-0.31,2.44-0.08
		c0.67,0.23,1.06,0.7,1.18,1.43c0.11,0.73-0.34,1.77-1.35,3.11c-2.58,3.14-5.3,6.79-8.16,10.94c-2.86,4.15-5.58,8.36-8.16,12.62
		c-2.58,4.27-4.91,8.41-6.98,12.45c-2.08,4.04-3.51,7.57-4.29,10.6c-1.35,4.6-1.32,7.55,0.08,8.83c1.4,1.29,3.5,1.15,6.31-0.42
		c4.38-2.69,9-6.25,13.88-10.68c4.88-4.43,9.7-9.06,14.47-13.88c4.77-4.82,9.34-9.53,13.71-14.13c4.38-4.6,8.25-8.41,11.61-11.44
		c1.01-1.01,1.91-1.35,2.69-1.01c0.78,0.34,1.4,0.98,1.85,1.93c0.45,0.95,0.7,1.96,0.76,3.03
		C388.7,442.17,388.57,442.99,388.23,443.55z"/>
	<path class="st32" d="M445.27,421c-1.57,0-3.2,0-4.88,0c-1.68,0-3.31-0.06-4.88-0.17c-0.45,0.23-0.93,0.39-1.43,0.5
		c-0.5,0.11-0.98,0.28-1.43,0.5c-1.46,2.92-3.45,6.54-5.97,10.85c-2.52,4.32-5.58,9.51-9.17,15.56
		c21.2-15.37,35.67-23.05,43.41-23.05c3.25,0,5.05,1.29,5.38,3.87c0,2.13-0.73,4.88-2.19,8.25c-3.03,5.72-9.14,10.66-18.34,14.81
		c-8.75,3.93-17.16,5.89-25.24,5.89c3.25,5.72,7.26,11.53,12.03,17.42c4.77,5.89,10.46,11.86,17.08,17.92
		c14.02,13.01,26.53,21.14,37.52,24.4c1.91,0.56,3.64,0.84,5.21,0.84c7.63,0,12.79-3.03,15.48-9.09c0.34-0.79,0.73-1.07,1.18-0.84
		c0.11,0.11,0.17,0.28,0.17,0.5c0,0.34,0.06,0.62,0.17,0.84c-0.9,1.91-2.05,3.87-3.45,5.89c-1.4,2.02-3.28,3.81-5.64,5.38
		c-0.34,0.22-3.09,0.06-8.25-0.5c-2.36-0.34-4.21-0.7-5.55-1.09c-1.35-0.39-2.41-0.7-3.2-0.93c-20.3-5.5-43.86-24.85-70.67-58.05
		c-2.24,3.59-4.54,7.99-6.9,13.21c-2.36,5.21-4.94,11.19-7.74,17.92c-0.23,0.56-0.56,0.84-1.01,0.84c-0.56,0-1.12-0.9-1.68-2.69
		c0-0.56,0.06-1.01,0.17-1.35c3.03-7.63,5.64-14.11,7.82-19.43c2.19-5.33,4.12-9.62,5.81-12.87c-0.9-2.91-0.87-5.16,0.08-6.73
		c0.95-1.57,2.21-2.19,3.78-1.85c3.14-5.38,6.06-10.37,8.75-14.97c2.69-4.6,5.22-8.81,7.57-12.62h-0.67
		c-0.56-0.11-1.26-0.19-2.1-0.25c-0.84-0.06-1.77-0.19-2.78-0.42c-1.57-0.34-2.97-1.35-4.21-3.03c-1.24-1.68-1.85-3.31-1.85-4.88
		c0-1.23,0.39-2.24,1.18-3.03c2.8-2.92,6.28-5.41,10.43-7.49c4.15-2.07,8.92-3.73,14.3-4.96c15.7-23.56,31.44-42.51,47.2-56.87
		c15.76-14.36,31.83-24.4,48.2-30.12c8.86-3.03,17.56-4.54,26.08-4.54c14.24,0,26.3,3.98,36.18,11.95
		c9.09,8.08,13.63,17.5,13.63,28.27c0,8.19-2.86,15.98-8.58,23.39c-6.06,8.19-15.31,15.2-27.76,21.03
		C533.43,410.4,489.01,421,445.27,421z M447.96,448.43c5.61-4.26,8.25-8.75,7.91-13.46c0-3.25-1.91-4.6-5.72-4.04
		c-3.37,0.45-9.37,3.48-18,9.09c-7.07,4.82-11.89,8.58-14.47,11.27c0.22,0.56,0.5,1.26,0.84,2.1c0.34,0.84,0.84,1.82,1.51,2.94
		c0.34,0.11,1.06,0.17,2.19,0.17c1.79,0,3.78-0.17,5.97-0.5s4.57-0.95,7.15-1.85c2.69-0.9,5.1-1.79,7.24-2.69
		C444.71,450.56,446.5,449.55,447.96,448.43z M430.29,417.47c2.13-3.36,4.21-6.65,6.23-9.84c2.02-3.2,4.04-6.42,6.06-9.68
		c-9.09,2.8-15.88,6.9-20.36,12.28c-0.9,0.79-1.35,1.85-1.35,3.2c0,1.8,1.23,2.86,3.7,3.2c1.57,0.34,2.83,0.56,3.79,0.67
		C429.31,417.41,429.96,417.47,430.29,417.47z M435.51,417.8c1.91,0.11,3.9,0.2,5.97,0.25c2.07,0.06,4.23,0.08,6.48,0.08
		c18.62,0,37.75-2.24,57.38-6.73c25.46-6.28,49.07-15.59,70.84-27.93c23.33-13.57,35-27.87,35-42.91c0-9.53-4.71-17.61-14.13-24.23
		c-9.54-6.62-20.47-9.93-32.81-9.93c-8.3,0-16.32,1.63-24.06,4.88c-18.85,7.85-36.91,20.61-54.18,38.28
		C468.71,367.24,451.88,389.98,435.51,417.8z"/>
	<path class="st32" d="M541,435.64c-1.91,2.36-4.37,4.63-7.4,6.82c-3.03,2.19-6.79,3.78-11.27,4.79c2.58-1.91,5.33-4.09,8.25-6.56
		c2.91-2.47,5.05-4.65,6.39-6.56c1.12-1.79,1.74-3.36,1.85-4.71c0.11-1.35-0.17-2.38-0.84-3.11c-0.67-0.73-1.66-1.06-2.94-1.01
		c-1.29,0.06-2.78,0.53-4.46,1.43c-4.15,2.36-8.33,5.47-12.54,9.34c-4.21,3.87-8.22,7.94-12.03,12.2l-2.02,2.69
		c-2.58,3.48-5.22,7.57-7.91,12.28c-2.69,4.71-4.27,9.76-4.71,15.14c-0.11,2.47,0.14,4.49,0.76,6.06c0.62,1.57,1.46,2.78,2.52,3.62
		c1.06,0.84,2.3,1.4,3.7,1.68c1.4,0.28,2.83,0.37,4.29,0.25c3.7-0.45,7.66-1.46,11.86-3.03c4.21-1.57,7.88-3.25,11.02-5.05
		c0.9-0.56,1.54-0.64,1.93-0.25c0.39,0.39,0.14,0.87-0.76,1.43c-1.24,0.9-2.69,1.88-4.37,2.94c-1.68,1.07-3.53,2.1-5.55,3.11
		c-2.02,1.01-4.1,1.93-6.23,2.78c-2.13,0.84-4.26,1.43-6.39,1.77c-1.68,0.34-3.51,0.14-5.47-0.59c-1.96-0.73-3.82-1.79-5.55-3.2
		c-1.74-1.4-3.17-3.11-4.29-5.13c-1.12-2.02-1.63-4.15-1.51-6.39c0.22-4.04,1.09-8.13,2.61-12.28c1.51-4.15,3.45-8.19,5.8-12.11
		c2.36-3.92,5.02-7.66,7.99-11.19c2.97-3.53,6.03-6.73,9.17-9.59c3.14-2.86,6.28-5.27,9.42-7.24c3.14-1.96,6.06-3.39,8.75-4.29
		c2.13-0.67,4.18-0.73,6.14-0.17c1.96,0.56,3.53,1.51,4.71,2.86c1.18,1.35,1.77,3.03,1.77,5.05
		C543.7,431.43,542.8,433.51,541,435.64z M522.33,446.91c0,0.11-0.06,0.23-0.17,0.34v-0.17
		C522.27,447.08,522.33,447.03,522.33,446.91z"/>
</g>
</svg>
